<svg width="116" height="34" viewBox="0 0 116 34" fill="none" xmlns="http://www.w3.org/2000/svg">
<path fill-rule="evenodd" clip-rule="evenodd" d="M51.1454 16.7667V17.9296H54.1562C54.1668 18.8642 53.9491 19.6766 53.503 20.3669C53.057 21.0466 52.2021 21.3864 50.9383 21.3864C49.7489 21.3864 48.8515 21.0094 48.2461 20.2554C47.6408 19.5014 47.3381 18.3438 47.3381 16.7826C47.3381 13.7135 48.5382 12.1789 50.9383 12.1789C52.7118 12.1789 53.7367 12.9754 54.0128 14.5684H55.3987C55.2182 13.432 54.7243 12.5559 53.9172 11.9399C53.1207 11.3133 52.1277 11 50.9383 11C49.3559 11 48.1346 11.4992 47.2744 12.4975C46.4248 13.4957 46 14.9241 46 16.7826C46 18.6518 46.4248 20.0855 47.2744 21.0837C48.1346 22.082 49.3559 22.5812 50.9383 22.5812C51.9684 22.5812 52.8233 22.3794 53.503 21.9758C54.1827 21.5616 54.6818 21.0147 55.0004 20.335C55.3297 19.6447 55.4943 18.8695 55.4943 18.0092V16.7667H51.1454ZM71.6186 16.7986C72.3407 16.7986 72.8877 16.7189 73.2594 16.5596C73.6417 16.4003 73.9018 16.1667 74.0398 15.8587C74.1779 15.5401 74.2469 15.11 74.2469 14.5684C74.2469 14.0267 74.1779 13.6019 74.0398 13.294C73.9018 12.9754 73.6417 12.7364 73.2594 12.5771C72.8877 12.4178 72.3407 12.3382 71.6186 12.3382H69.1654V16.7986H71.6186ZM69.1654 17.9774V22.4219H67.8271V11.1593H71.6823C73.0948 11.1593 74.0984 11.4514 74.6931 12.0355C75.2878 12.6196 75.5852 13.4639 75.5852 14.5684C75.5852 15.4498 75.4259 16.1614 75.1073 16.703C74.7887 17.234 74.2257 17.6004 73.4186 17.8022L76.0312 22.4219H74.4859L72.0168 17.9774H71.6982H69.1654ZM89.737 21.243H88.0166V22.4219H92.7956V21.243H91.0752V12.3382H92.7956V11.1593H88.0166V12.3382H89.737V21.243ZM109.181 11.1593H105.501V22.4219H109.022C112.569 22.4219 114.342 20.5421 114.342 16.7826C114.342 14.9348 113.912 13.5382 113.052 12.593C112.192 11.6372 110.901 11.1593 109.181 11.1593ZM112.064 20.1598C111.448 20.882 110.408 21.243 108.942 21.243H106.839V12.3382H109.069C110.482 12.3382 111.491 12.6992 112.096 13.4214C112.702 14.1329 113.004 15.2534 113.004 16.7826C113.004 18.3119 112.691 19.4376 112.064 20.1598Z" fill="white"/>
<path d="M6.25 0.25V33.75" stroke="white" stroke-width="0.5" stroke-linecap="round"/>
<path d="M14.25 0.25V33.75" stroke="white" stroke-width="0.5" stroke-linecap="round"/>
<path d="M22.25 0.25V33.75" stroke="white" stroke-width="0.5" stroke-linecap="round"/>
<path d="M30.25 0.25V33.75" stroke="white" stroke-width="0.5" stroke-linecap="round"/>
<path d="M35.75 5.25H0.25" stroke="white" stroke-width="0.5" stroke-linecap="round"/>
<path d="M35.75 13.25H0.25" stroke="white" stroke-width="0.5" stroke-linecap="round"/>
<path d="M35.75 21.25H0.25" stroke="white" stroke-width="0.5" stroke-linecap="round"/>
<path d="M35.75 29.25H0.25" stroke="white" stroke-width="0.5" stroke-linecap="round"/>
</svg>
