<svg width="85" height="85" viewBox="0 0 85 85" fill="none" xmlns="http://www.w3.org/2000/svg">
<path d="M75.5556 47.2222V37.7778H85V47.2222H75.5556ZM85 28.3333V18.8889H75.5556V28.3333H85ZM85 0H75.5556V9.44444H85V0ZM66.1111 56.6667H75.5556V47.2222H66.1111V56.6667ZM85 66.1111V56.6667H75.5556V66.1111H85ZM47.2222 66.1111V56.6667H56.6667V47.2222H47.2222V37.7778H56.6667V28.3333H47.2222V18.8889H56.6667V9.44444H47.2222V0H0V85H47.2222V75.5556H56.6667V66.1111H47.2222ZM56.6667 85H66.1111V75.5556H56.6667V85ZM66.1111 0H56.6667V9.44444H66.1111V0ZM66.1111 37.7778H75.5556V28.3333H66.1111V37.7778ZM56.6667 66.1111H66.1111V56.6667H56.6667V66.1111ZM66.1111 75.5556H75.5556V66.1111H66.1111V75.5556ZM85 85V75.5556H75.5556V85H85ZM56.6667 28.3333H66.1111V18.8889H56.6667V28.3333ZM56.6667 47.2222H66.1111V37.7778H56.6667V47.2222ZM66.1111 9.44444V18.8889H75.5556V9.44444H66.1111Z" fill="white"/>
</svg>