<?xml version="1.0" encoding="UTF-8"?>
<svg id="Layer_1" xmlns="http://www.w3.org/2000/svg" version="1.1" viewBox="0 0 508 508">
  <!-- Generator: Adobe Illustrator 29.2.1, SVG Export Plug-In . SVG Version: 2.1.0 Build 116)  -->
  <defs>
    <style>
      .st0 {
        fill: #809a7e;
      }
    </style>
  </defs>
  <path class="st0" d="M137.6,370.4h-52.9c-3,0-5.5-1-7.5-3-2-2-3-4.6-3-7.6,0-3,1-5.5,3-7.5,2-2,4.6-3,7.5-3h52.9v-84.7h-52.9c-3,0-5.5-1-7.5-3-2-2-3-4.6-3-7.6,0-3,1-5.5,3-7.5,2-2,4.6-3,7.5-3h52.9v-84.7h-52.9c-3,0-5.5-1-7.5-3s-3-4.6-3-7.6c0-3,1-5.5,3-7.5,2-2,4.6-3,7.5-3h52.9v-52.9c0-3,1-5.5,3-7.5,2-2,4.6-3,7.6-3,3,0,5.5,1,7.5,3,2,2,3,4.6,3,7.5v52.9h84.7v-52.9c0-3,1-5.5,3-7.5,2-2,4.6-3,7.6-3,3,0,5.5,1,7.5,3,2,2,3,4.6,3,7.5v52.9h84.7v-52.9c0-3,1-5.5,3-7.5,2-2,4.6-3,7.6-3,3,0,5.5,1,7.5,3,2,2,3,4.6,3,7.5v52.9h52.9c3,0,5.5,1,7.5,3,2,2,3,4.6,3,7.6,0,3-1,5.5-3,7.5-2,2-4.6,3-7.5,3h-52.9v84.7h52.9c3,0,5.5,1,7.5,3,2,2,3,4.6,3,7.6,0,3-1,5.5-3,7.5-2,2-4.6,3-7.5,3h-52.9v84.7h52.9c3,0,5.5,1,7.5,3,2,2,3,4.6,3,7.6,0,3-1,5.5-3,7.5-2,2-4.6,3-7.5,3h-52.9v52.9c0,3-1,5.5-3,7.5-2,2-4.6,3-7.6,3-3,0-5.5-1-7.5-3-2-2-3-4.6-3-7.5v-52.9h-84.7v52.9c0,3-1,5.5-3,7.5-2,2-4.6,3-7.6,3-3,0-5.5-1-7.5-3-2-2-3-4.6-3-7.5v-52.9h-84.7v52.9c0,3-1,5.5-3,7.5-2,2-4.6,3-7.6,3-3,0-5.5-1-7.5-3-2-2-3-4.6-3-7.5v-52.9ZM158.8,349.2h84.7v-84.7h-84.7v84.7ZM264.6,349.2h84.7v-84.7h-84.7v84.7ZM158.8,243.4h84.7v-84.7h-84.7v84.7ZM264.6,243.4h84.7v-84.7h-84.7v84.7Z"/>
</svg>