<svg width="1004" height="1154" viewBox="0 0 1004 1154" fill="none" xmlns="http://www.w3.org/2000/svg">
<g clip-path="url(#clip0_619_36242)">
<path d="M973.18 0H30.06C13.4583 0 0 13.4583 0 30.06V1123.18C0 1139.78 13.4583 1153.24 30.06 1153.24H973.18C989.782 1153.24 1003.24 1139.78 1003.24 1123.18V30.06C1003.24 13.4583 989.782 0 973.18 0Z" fill="#414141"/>
<path d="M405.56 363.43H213.43V555.56H405.56V363.43Z" fill="#91CB77"/>
<path d="M597.68 363.43H405.56V555.56H597.68V363.43Z" fill="#91CB77"/>
<path d="M597.68 747.69H405.56V939.81H597.68V747.69Z" fill="#7CD1EA"/>
<path d="M789.81 555.56H597.68V747.69H789.81V555.56Z" fill="#EA6363"/>
<path d="M597.68 555.56H405.56V747.69H597.68V555.56Z" fill="#5CC4EF"/>
<path d="M405.56 555.56H213.43V747.69H405.56V555.56Z" fill="#5CC4EF"/>
<path d="M405.56 747.69H213.43V939.81H405.56V747.69Z" fill="#7CD1EA"/>
<path d="M262.97 115.89V111.75H278.46V116.18C278.46 119.24 277.88 122 276.73 124.44C275.58 126.88 273.79 128.83 271.37 130.28C268.95 131.74 265.9 132.46 262.23 132.46C256.59 132.46 252.25 130.68 249.21 127.13C246.16 123.57 244.64 118.47 244.64 111.81C244.64 105.15 246.16 100.1 249.21 96.5502C252.25 92.9902 256.6 91.2202 262.23 91.2202C266.47 91.2202 270.01 92.3302 272.87 94.5402C275.73 96.7502 277.47 99.8802 278.12 103.93H273.18C272.2 98.2602 268.55 95.4202 262.23 95.4202C253.68 95.4202 249.41 100.89 249.41 111.82C249.41 117.38 250.49 121.5 252.64 124.19C254.8 126.88 257.99 128.22 262.23 128.22C266.73 128.22 269.78 127 271.37 124.56C272.96 122.12 273.73 119.24 273.7 115.91H262.98L262.97 115.89Z" fill="white"/>
<path d="M320.33 116.06V131.89H315.56V91.77H329.29C334.32 91.77 337.9 92.81 340.01 94.89C342.13 96.97 343.19 99.98 343.19 103.91C343.19 107.05 342.62 109.58 341.49 111.49C340.36 113.4 338.35 114.72 335.48 115.43L344.79 131.89H339.29L330.5 116.06H320.34H320.33ZM334.94 111.01C336.28 110.44 337.2 109.6 337.69 108.48C338.18 107.36 338.43 105.84 338.43 103.91C338.43 101.98 338.18 100.46 337.69 99.34C337.2 98.22 336.28 97.38 334.94 96.82C333.6 96.25 331.64 95.97 329.07 95.97H320.33V111.86H329.07C331.64 111.86 333.6 111.58 334.94 111.01Z" fill="white"/>
<path d="M378.44 127.7H384.57V95.9803H378.44V91.7803H395.46V95.9803H389.33V127.7H395.46V131.9H378.44V127.7Z" fill="white"/>
<path d="M433.93 91.7803H447.04C453.17 91.7803 457.76 93.4703 460.83 96.8603C463.89 100.25 465.43 105.23 465.43 111.81C465.43 125.2 459.11 131.9 446.48 131.9H433.94V91.7803H433.93ZM457.34 123.84C459.55 121.27 460.66 117.26 460.66 111.81C460.66 106.36 459.58 102.36 457.43 99.8103C455.27 97.2603 451.68 95.9803 446.65 95.9803H438.71V127.7H446.2C451.42 127.7 455.14 126.41 457.35 123.84H457.34Z" fill="white"/>
<path d="M921.93 560.55C924.69 560.55 926.93 558.31 926.93 555.55C926.93 552.79 924.69 550.55 921.93 550.55H794.82V368.42H921.93C924.69 368.42 926.93 366.18 926.93 363.42C926.93 360.66 924.69 358.42 921.93 358.42H794.82V221.31C794.82 218.55 792.58 216.31 789.82 216.31C787.06 216.31 784.82 218.55 784.82 221.31V358.42H602.69V221.31C602.69 218.55 600.45 216.31 597.69 216.31C594.93 216.31 592.69 218.55 592.69 221.31V358.42H410.56V221.31C410.56 218.55 408.32 216.31 405.56 216.31C402.8 216.31 400.56 218.55 400.56 221.31V358.42H218.43V221.31C218.43 218.55 216.19 216.31 213.43 216.31C210.67 216.31 208.43 218.55 208.43 221.31V358.42H61.32C58.56 358.42 56.32 360.66 56.32 363.42C56.32 366.18 58.56 368.42 61.32 368.42H208.43V550.55H61.32C58.56 550.55 56.32 552.79 56.32 555.55C56.32 558.31 58.56 560.55 61.32 560.55H208.43V742.68H61.32C58.56 742.68 56.32 744.92 56.32 747.68C56.32 750.44 58.56 752.68 61.32 752.68H208.43V934.81H61.32C58.56 934.81 56.32 937.05 56.32 939.81C56.32 942.57 58.56 944.81 61.32 944.81H208.43V1081.92C208.43 1084.68 210.67 1086.92 213.43 1086.92C216.19 1086.92 218.43 1084.68 218.43 1081.92V944.81H400.56V1081.92C400.56 1084.68 402.8 1086.92 405.56 1086.92C408.32 1086.92 410.56 1084.68 410.56 1081.92V944.81H592.69V1081.92C592.69 1084.68 594.93 1086.92 597.69 1086.92C600.45 1086.92 602.69 1084.68 602.69 1081.92V944.81H784.82V1081.92C784.82 1084.68 787.06 1086.92 789.82 1086.92C792.58 1086.92 794.82 1084.68 794.82 1081.92V944.81H921.93C924.69 944.81 926.93 942.57 926.93 939.81C926.93 937.05 924.69 934.81 921.93 934.81H794.82V752.68H921.93C924.69 752.68 926.93 750.44 926.93 747.68C926.93 744.92 924.69 742.68 921.93 742.68H794.82V560.55H921.93ZM784.82 368.42V550.55H602.69V368.42H784.82ZM592.69 368.42V550.55H410.56V368.42H592.69ZM592.69 560.55V742.68H410.56V560.55H592.69ZM218.43 368.42H400.56V550.55H218.43V368.42ZM218.43 560.55H400.56V742.68H218.43V560.55ZM218.43 934.81V752.68H400.56V934.81H218.43ZM410.56 934.81V752.68H592.69V934.81H410.56ZM784.82 934.81H602.69V752.68H784.82V934.81ZM784.82 742.68H602.69V560.55H784.82V742.68Z" fill="white"/>
</g>
<defs>
<clipPath id="clip0_619_36242">
<rect width="1003.24" height="1153.24" fill="white"/>
</clipPath>
</defs>
</svg>
