<svg width="65" height="65" viewBox="0 0 65 65" fill="none" xmlns="http://www.w3.org/2000/svg">
<path d="M47.802 17.1981C45.7974 15.1802 43.4133 13.579 40.787 12.4866C38.1607 11.3943 35.3443 10.8325 32.4999 10.8335C20.5291 10.8335 10.8604 20.5293 10.8604 32.5002C10.8604 44.471 20.5291 54.1668 32.4999 54.1668C42.602 54.1668 51.0249 47.2606 53.4353 37.9168H47.802C46.6864 41.0843 44.6152 43.8274 41.8744 45.7678C39.1336 47.7083 35.8581 48.7503 32.4999 48.7502C23.5354 48.7502 16.2499 41.4647 16.2499 32.5002C16.2499 23.5356 23.5354 16.2502 32.4999 16.2502C36.9958 16.2502 41.0041 18.1189 43.9291 21.071L35.2083 29.7918H54.1666V10.8335L47.802 17.1981Z" fill="white"/>
</svg>
