<svg width="693" height="184" viewBox="0 0 693 184" fill="none" xmlns="http://www.w3.org/2000/svg">
<g clip-path="url(#clip0_695_8427)">
<rect x="123.882" y="78.1938" width="531.785" height="75.1156" rx="8.4183" fill="#414141"/>
<g filter="url(#filter0_d_695_8427)">
<rect x="137.41" y="94.7059" width="35.0763" height="42.0915" rx="5.6122" fill="#656565" shape-rendering="crispEdges"/>
<path d="M149.75 121.067H147.388C147.254 121.067 147.142 121.022 147.053 120.933C146.964 120.844 146.919 120.728 146.919 120.594C146.919 120.46 146.964 120.348 147.053 120.259C147.142 120.17 147.258 120.125 147.388 120.125H149.75V116.343H147.388C147.254 116.343 147.142 116.298 147.053 116.209C146.964 116.119 146.919 116.003 146.919 115.869C146.919 115.735 146.964 115.624 147.053 115.534C147.142 115.445 147.258 115.401 147.388 115.401H149.75V111.618H147.388C147.254 111.618 147.142 111.574 147.053 111.484C146.964 111.395 146.919 111.279 146.919 111.145C146.919 111.011 146.964 110.899 147.053 110.81C147.142 110.721 147.258 110.676 147.388 110.676H149.75V108.314C149.75 108.18 149.795 108.068 149.884 107.979C149.973 107.89 150.089 107.845 150.223 107.845C150.357 107.845 150.469 107.89 150.558 107.979C150.648 108.068 150.692 108.184 150.692 108.314V110.676H154.474V108.314C154.474 108.18 154.519 108.068 154.608 107.979C154.698 107.89 154.814 107.845 154.948 107.845C155.082 107.845 155.193 107.89 155.283 107.979C155.372 108.068 155.417 108.184 155.417 108.314V110.676H159.199V108.314C159.199 108.18 159.243 108.068 159.333 107.979C159.422 107.89 159.538 107.845 159.672 107.845C159.806 107.845 159.918 107.89 160.007 107.979C160.096 108.068 160.141 108.184 160.141 108.314V110.676H162.503C162.637 110.676 162.749 110.721 162.838 110.81C162.927 110.899 162.972 111.015 162.972 111.149C162.972 111.283 162.927 111.395 162.838 111.484C162.749 111.574 162.633 111.618 162.503 111.618H160.141V115.401H162.503C162.637 115.401 162.749 115.445 162.838 115.534C162.927 115.624 162.972 115.74 162.972 115.874C162.972 116.008 162.927 116.119 162.838 116.209C162.749 116.298 162.633 116.343 162.503 116.343H160.141V120.125H162.503C162.637 120.125 162.749 120.17 162.838 120.259C162.927 120.348 162.972 120.464 162.972 120.598C162.972 120.732 162.927 120.844 162.838 120.933C162.749 121.022 162.633 121.067 162.503 121.067H160.141V123.429C160.141 123.563 160.096 123.675 160.007 123.764C159.918 123.854 159.802 123.898 159.668 123.898C159.534 123.898 159.422 123.854 159.333 123.764C159.243 123.675 159.199 123.559 159.199 123.429V121.067H155.417V123.429C155.417 123.563 155.372 123.675 155.283 123.764C155.193 123.854 155.077 123.898 154.943 123.898C154.809 123.898 154.698 123.854 154.608 123.764C154.519 123.675 154.474 123.559 154.474 123.429V121.067H150.692V123.429C150.692 123.563 150.648 123.675 150.558 123.764C150.469 123.854 150.353 123.898 150.219 123.898C150.085 123.898 149.973 123.854 149.884 123.764C149.795 123.675 149.75 123.559 149.75 123.429V121.067ZM150.697 120.12H154.479V116.338H150.697V120.12ZM155.421 120.12H159.203V116.338H155.421V120.12ZM150.697 115.396H154.479V111.614H150.697V115.396ZM155.421 115.396H159.203V111.614H155.421V115.396Z" fill="#809A7E"/>
</g>
<rect x="186.714" y="112.577" width="453.511" height="6.58961" rx="3.2948" fill="#B6B6B6"/>
<rect x="188.117" y="113.98" width="450.705" height="3.78351" rx="1.89175" fill="#FEFEFE"/>
<rect x="186.714" y="112.577" width="123.748" height="6.58961" rx="3.2948" fill="#3764C0"/>
<circle cx="304.868" cy="115.752" r="11.4599" fill="#3764C0"/>
</g>
<path d="M40.22 61.7917C40.0553 61.7917 39.8701 61.658 39.6643 61.3905C39.4586 61.123 39.366 60.8657 39.3865 60.6188C39.4071 60.2895 39.4997 59.8163 39.6643 59.1989C39.829 58.5816 40.0142 57.9539 40.22 57.316C40.4257 56.6781 40.6109 56.1739 40.7756 55.8035C40.8579 55.4743 40.9299 55.1862 40.9916 54.9392C41.0739 54.6717 41.1254 54.4968 41.146 54.4145C41.2077 54.3322 41.3003 54.1161 41.4238 53.7663C41.5678 53.4165 41.681 53.0769 41.7633 52.7477C41.8045 52.5831 41.8868 52.2744 42.0102 51.8217C42.1543 51.3484 42.3189 50.8031 42.5041 50.1857C42.7099 49.5684 42.9054 48.9613 43.0906 48.3646C43.2964 47.7678 43.4713 47.243 43.6153 46.7903C43.7594 46.3376 43.852 46.0392 43.8931 45.8952C44.0578 45.6482 44.1812 45.4116 44.2635 45.1852C44.3459 44.9589 44.3973 44.8045 44.4179 44.7222C44.5414 44.6399 44.6134 44.537 44.634 44.4136C44.6545 44.2695 44.6648 44.1563 44.6648 44.074C44.6648 43.9711 44.6957 43.8888 44.7574 43.8271C44.8397 43.7654 44.8809 43.6933 44.8809 43.611C44.9632 43.5493 45.0146 43.4567 45.0352 43.3332C45.0558 43.1892 45.1175 43.0657 45.2204 42.9628L45.3748 42.4381L47.1959 42.4072C47.1548 42.6541 47.093 42.9628 47.0107 43.3332C46.9284 43.683 46.7329 44.1563 46.4242 44.7531C46.3214 45.1647 46.1979 45.5351 46.0538 45.8643C45.9304 46.1936 45.8789 46.4096 45.8995 46.5125C45.8583 46.5537 45.7657 46.7595 45.6217 47.1299C45.4982 47.5003 45.3439 47.953 45.1587 48.488C44.9941 49.0231 44.8192 49.5581 44.634 50.0931C44.4693 50.6281 44.315 51.1014 44.1709 51.513C44.0475 51.904 43.9652 52.1509 43.924 52.2538C43.7594 52.5831 43.5742 53.0666 43.3684 53.7046C43.1626 54.3425 42.8539 55.2068 42.4424 56.2974C42.2778 56.6266 42.072 57.1205 41.825 57.779C41.5987 58.4375 41.4135 59.0343 41.2694 59.5693C41.0431 60.3719 40.8785 60.9275 40.7756 61.2361C40.6933 61.5654 40.6212 61.7403 40.5595 61.7609C40.4978 61.802 40.3846 61.8123 40.22 61.7917ZM40.4669 43.3949C39.8907 43.4155 39.4586 43.3847 39.1705 43.3023C38.903 43.22 38.8104 43.0143 38.8927 42.685C38.9544 42.4381 39.0882 42.2529 39.2939 42.1294C39.4997 42.0059 39.7981 41.9133 40.1891 41.8516C40.4154 41.8104 40.7035 41.759 41.0534 41.6973C41.4238 41.6355 41.7736 41.5738 42.1029 41.5121C42.7819 41.4297 43.3375 41.3577 43.7697 41.296C44.2224 41.2343 44.6854 41.1828 45.1587 41.1416C45.632 41.1005 46.2288 41.0593 46.949 41.0182C47.5458 40.977 48.0499 40.9462 48.4615 40.9256C48.8936 40.8844 49.1097 40.8638 49.1097 40.8638C49.1714 40.8638 49.3875 40.8844 49.7579 40.9256C50.1283 40.9667 50.5296 41.0182 50.9617 41.0799C51.3939 41.1416 51.7128 41.2137 51.9186 41.296C52.3919 41.3989 52.7314 41.5429 52.9372 41.7281C53.1636 41.9133 53.3179 42.1808 53.4002 42.5307C53.4619 42.7776 53.4619 42.9319 53.4002 42.9937C53.3385 43.0348 53.2253 43.0966 53.0607 43.1789C52.5874 43.3229 52.2376 43.3949 52.0112 43.3949C51.7848 43.3949 51.5276 43.3435 51.2395 43.2406C51.1366 43.1377 51.0132 43.0451 50.8691 42.9628C50.7456 42.8805 50.5193 42.8188 50.19 42.7776C49.8814 42.7159 49.3875 42.6644 48.7084 42.6233C48.1322 42.685 47.6281 42.7159 47.1959 42.7159C46.7638 42.7159 46.5477 42.7673 46.5477 42.8702L44.7266 42.9628L43.2141 43.1171C43.0083 43.1377 42.7202 43.1686 42.3498 43.2097C41.9794 43.2303 41.6193 43.2612 41.2694 43.3023C40.9196 43.3229 40.6521 43.3538 40.4669 43.3949ZM48.7612 59.9706C48.4937 59.9706 48.2776 59.9191 48.113 59.8163C47.9689 59.7134 47.7837 59.5693 47.5574 59.3841C47.1664 58.9726 46.8886 58.5816 46.724 58.2112C46.5593 57.8202 46.5079 57.4498 46.5696 57.0999C46.6313 56.9353 46.6519 56.781 46.6313 56.6369C46.6313 56.4723 46.6313 56.39 46.6313 56.39C46.5285 56.2871 46.4976 56.2254 46.5387 56.2048C46.5799 56.1636 46.6211 56.1019 46.6622 56.0196C46.7857 56.0196 46.8268 55.9064 46.7857 55.6801C46.7445 55.5154 46.8268 55.1553 47.0326 54.5997C47.2384 54.0441 47.4956 53.5194 47.8043 53.0255C47.9278 52.8197 48.113 52.5522 48.3599 52.2229C48.6068 51.8731 48.8744 51.5336 49.1625 51.2043C49.4711 50.8545 49.7489 50.5767 49.9959 50.3709C50.5103 49.9388 50.963 49.6198 51.354 49.414C51.745 49.2083 52.1669 49.0539 52.6196 48.951C53.0723 48.8481 53.381 48.7967 53.5456 48.7967C53.7308 48.7967 53.9777 48.9613 54.2864 49.2906C54.7597 49.4963 55.0992 49.7433 55.305 50.0314C55.5314 50.3195 55.6754 50.7413 55.7371 51.2969C55.7989 51.9143 55.7474 52.6242 55.5828 53.4268C55.4388 54.2087 54.9552 55.1862 54.1321 56.3591C53.6176 57.0999 53.1443 57.6556 52.7122 58.026C52.28 58.3758 51.7656 58.7256 51.1688 59.0754C50.7367 59.3635 50.3457 59.5796 49.9959 59.7237C49.646 59.8471 49.2345 59.9294 48.7612 59.9706ZM51.7244 56.6987C52.2183 56.1431 52.6093 55.6183 52.8974 55.1245C53.206 54.6306 53.4941 54.0029 53.7617 53.2416C53.844 53.0152 53.8954 52.7374 53.916 52.4081C53.9366 52.0583 53.9263 51.7394 53.8851 51.4513C53.8645 51.1426 53.7925 50.9677 53.6691 50.9265C53.4221 50.7825 53.1237 50.7413 52.7739 50.8031C52.4241 50.8442 52.0434 51.0397 51.6318 51.3895C50.9939 51.9246 50.4383 52.5933 49.965 53.3959C49.4917 54.1779 49.0287 55.073 48.576 56.0813C48.2673 56.8221 48.1953 57.4189 48.3599 57.8716C48.5451 58.3038 48.9258 58.4581 49.502 58.3346C50.0988 58.1906 50.8396 57.6453 51.7244 56.6987ZM59.3512 66.3292C58.775 66.5556 58.168 66.5144 57.53 66.2057C56.9127 65.9177 56.3777 65.4546 55.925 64.8167C55.8426 64.6933 55.7398 64.4978 55.6163 64.2302C55.5134 63.9833 55.4105 63.7261 55.3076 63.4586C55.2253 63.1911 55.1739 62.9544 55.1533 62.7486C55.1327 62.5428 55.1533 62.4194 55.215 62.3782C55.2767 62.3165 55.3796 62.2959 55.5237 62.3165C55.6677 62.3371 55.8015 62.3885 55.925 62.4708C56.069 62.5531 56.1616 62.656 56.2028 62.7795C56.2645 62.9235 56.3571 63.1087 56.4806 63.3351C56.6246 63.5615 56.7789 63.7672 56.9436 63.9524C57.1082 64.1376 57.2317 64.2405 57.314 64.2611C57.705 64.4463 57.9931 64.5286 58.1783 64.5081C58.3635 64.4875 58.5281 64.4257 58.6721 64.3228C59.022 64.0553 59.3101 63.7055 59.5364 63.2734C59.7628 62.8412 60.02 62.1724 60.3081 61.267C60.5344 60.5056 60.7608 59.7031 60.9872 58.8594C61.2341 57.9951 61.4502 57.3263 61.6354 56.853C61.6971 56.6061 61.7691 56.4003 61.8514 56.2357C61.9543 56.0505 62.0469 55.9167 62.1292 55.8344H62.3145C61.8617 56.1225 61.4605 56.4517 61.1106 56.8221C60.7608 57.1925 60.3184 57.4909 59.7833 57.7173C59.6599 57.8613 59.3512 57.9539 58.8573 57.9951C58.384 58.0157 57.921 57.9539 57.4683 57.8099C57.1802 57.6453 56.9642 57.5218 56.8201 57.4395C56.6966 57.3572 56.5937 57.244 56.5114 57.0999C56.4497 56.9559 56.3571 56.7295 56.2336 56.4209C56.0896 56.1122 56.069 55.608 56.1719 54.9084C56.2748 54.2087 56.46 53.5091 56.7275 52.8094C56.9744 52.295 57.3346 51.7394 57.8079 51.1426C58.2811 50.5458 58.7853 50.0108 59.3203 49.5375C59.8554 49.0436 60.339 48.735 60.7711 48.6115C60.9357 48.5292 61.1106 48.4777 61.2958 48.4572C61.5016 48.416 61.7897 48.4469 62.1601 48.5498C62.5099 48.5909 62.7775 48.6732 62.9627 48.7967C63.1479 48.8996 63.4462 49.1259 63.8578 49.4758C64.1253 49.7433 64.3414 50.0108 64.506 50.2783C64.6912 50.5458 64.8353 50.8236 64.9382 51.1117C65.0822 51.4204 65.1336 51.7085 65.0925 51.976C65.0719 52.2229 64.9587 52.4802 64.753 52.7477C64.5677 53.0152 64.3723 53.2827 64.1665 53.5502C63.9607 53.8177 63.8064 54.1881 63.7035 54.6614C63.6006 55.2788 63.436 55.9784 63.2096 56.7604C62.9832 57.5218 62.7877 58.2317 62.6231 58.8902L62.1292 60.804C61.6148 62.5531 61.1209 63.8496 60.6476 64.6933C60.1949 65.5575 59.7628 66.1029 59.3512 66.3292ZM58.24 56.4517C58.6516 56.4312 59.0425 56.3488 59.4129 56.2048C59.7833 56.0608 60.1435 55.8241 60.4933 55.4949C60.8431 55.145 61.1929 54.7026 61.5428 54.1676C61.8926 53.6737 62.1395 53.1592 62.2836 52.6242C62.4276 52.0686 62.4791 51.5336 62.4379 51.0191C62.4173 50.6899 62.3659 50.4738 62.2836 50.3709C62.2013 50.268 62.0264 50.2372 61.7588 50.2783C61.3679 50.34 60.9357 50.5561 60.4624 50.9265C59.9891 51.2764 59.5467 51.7188 59.1351 52.2538C58.8265 52.6654 58.5692 53.1592 58.3635 53.7354C58.1577 54.3528 58.0342 54.9392 57.9931 55.4949C57.9519 56.0505 58.0342 56.3694 58.24 56.4517ZM68.334 66.2366C68.1076 66.2572 67.7578 66.2057 67.2845 66.0823C66.8318 65.9588 66.4922 65.8456 66.2659 65.7427C65.9984 65.537 65.7308 65.2592 65.4633 64.9093C65.1958 64.5595 64.9798 64.1994 64.8151 63.829C64.6711 63.4791 64.6093 63.2116 64.6299 63.0264C64.6505 62.8618 64.8048 62.8309 65.0929 62.9338C65.4016 63.0367 65.6074 63.1705 65.7103 63.3351C65.8955 63.5615 66.1115 63.7775 66.3585 63.9833C66.6054 64.1891 66.8524 64.3434 67.0993 64.4463C67.3462 64.5698 67.5417 64.6212 67.6858 64.6007C68.2002 64.5183 68.6221 64.2611 68.9513 63.829C69.3011 63.4174 69.6098 62.8927 69.8773 62.2548C70.042 61.802 70.1654 61.4213 70.2477 61.1127C70.3506 60.8246 70.4432 60.4953 70.5255 60.1249C70.6284 59.7545 70.7519 59.2401 70.8959 58.5816C71.0811 57.8408 71.2046 57.316 71.2664 57.0073C71.3487 56.6781 71.3898 56.462 71.3898 56.3591C71.3898 56.2562 71.359 56.1842 71.2972 56.1431C71.2972 56.1431 71.1635 56.2151 70.8959 56.3591C70.6284 56.5032 70.33 56.6575 70.0008 56.8221C69.6921 56.9868 69.4555 57.1205 69.2909 57.2234C68.7147 57.4086 68.1488 57.5218 67.5932 57.563C67.0376 57.6041 66.6054 57.5732 66.2967 57.4704C66.1527 57.4086 65.9984 57.2646 65.8337 57.0382C65.6897 56.8119 65.5662 56.5649 65.4633 56.2974C65.381 56.0093 65.3502 55.7624 65.3707 55.5566C65.3913 55.392 65.4839 55.145 65.6485 54.8158C65.8132 54.4865 65.9984 54.1367 66.2041 53.7663C66.4305 53.3959 66.626 53.0872 66.7906 52.8403C66.9758 52.5728 67.089 52.439 67.1302 52.439C67.2125 52.439 67.2536 52.4081 67.2536 52.3464C67.2742 52.2847 67.2845 52.2127 67.2845 52.1303C67.3051 52.048 67.4594 51.8731 67.7475 51.6056C68.0562 51.3175 68.4677 50.9677 68.9822 50.5561C69.7024 49.8976 70.3506 49.3935 70.9268 49.0436C71.503 48.6938 72.038 48.4983 72.5319 48.4572C72.676 48.4777 72.8097 48.488 72.9332 48.488C73.0772 48.488 73.1492 48.488 73.1492 48.488C73.1492 48.488 73.211 48.5292 73.3344 48.6115C73.4785 48.6732 73.6637 48.7555 73.8901 48.8584C74.1987 48.9819 74.4765 49.198 74.7235 49.5066C74.9704 49.7947 75.1659 50.1343 75.3099 50.5253C75.4746 50.8957 75.5672 51.2661 75.5877 51.6365C75.5672 52.0892 75.4643 52.5316 75.2791 52.9638C75.1145 53.3959 74.9498 53.6017 74.7852 53.5811C74.6206 53.5605 74.4148 53.6325 74.1679 53.7972C73.9415 53.9618 73.8283 54.0853 73.8283 54.1676C73.8283 54.2499 73.7975 54.3528 73.7357 54.4762C73.6946 54.5997 73.5608 54.7952 73.3344 55.0627C73.3139 55.1656 73.2521 55.4434 73.1492 55.8961C73.0669 56.3283 72.964 56.8221 72.8406 57.3777C72.7171 57.9334 72.6039 58.4375 72.501 58.8902C72.4187 59.3224 72.3673 59.6002 72.3467 59.7237C72.3261 59.806 72.2747 59.9912 72.1924 60.2793C72.1306 60.5468 72.038 60.8554 71.9146 61.2053C71.8117 61.5551 71.6985 61.8843 71.575 62.193C71.4927 62.7898 71.3795 63.2322 71.2355 63.5203C71.112 63.829 70.9062 64.1582 70.6181 64.5081C70.3095 65.0225 69.9391 65.4238 69.5069 65.7119C69.0748 66.0205 68.6838 66.1955 68.334 66.2366ZM67.0684 55.8653C67.1096 56.071 67.3874 56.1431 67.9018 56.0813C68.4163 55.999 68.9307 55.8241 69.4452 55.5566C69.8979 55.3302 70.3095 55.145 70.6799 55.001C71.0503 54.8569 71.3075 54.6512 71.4516 54.3836C71.575 54.1779 71.6779 53.9721 71.7602 53.7663C71.8425 53.5605 71.9454 53.2621 72.0689 52.8712C72.0895 52.7888 72.1409 52.6962 72.2232 52.5933C72.3261 52.4699 72.4187 52.3979 72.501 52.3773C72.5833 52.3567 72.6657 52.3567 72.748 52.3773C72.8509 52.3979 72.9743 52.439 73.1184 52.5007C73.2213 52.4596 73.2933 52.3567 73.3344 52.1921C73.3962 52.0275 73.4065 51.8422 73.3653 51.6365C73.3447 51.4924 73.2418 51.2969 73.0566 51.05C72.8714 50.8031 72.6348 50.6076 72.3467 50.4635C72.038 50.2989 71.6779 50.4018 71.2664 50.7722C70.8548 51.1426 70.3506 51.5953 69.7539 52.1303C69.2806 52.5625 68.8279 53.0152 68.3957 53.4885C67.9636 53.9618 67.6137 54.4042 67.3462 54.8158C67.0993 55.2273 67.0067 55.5772 67.0684 55.8653ZM75.2795 60.7114C75.012 60.6085 74.8165 60.4542 74.693 60.2484C74.5696 60.022 74.4975 59.7031 74.477 59.2915C74.477 59.0446 74.5181 58.7153 74.6004 58.3038C74.6828 57.8922 74.7754 57.4189 74.8782 56.8839C74.8782 56.8427 74.8782 56.8016 74.8782 56.7604C74.8988 56.6987 74.9091 56.6575 74.9091 56.6369C74.9297 56.5546 74.9503 56.4312 74.9708 56.2665C75.012 56.1019 75.0429 55.9784 75.0634 55.8961C75.084 55.7932 75.0943 55.7932 75.0943 55.8961L75.3104 55.0627C75.4133 54.6923 75.5162 54.3219 75.6191 53.9515C75.7219 53.5811 75.8145 53.2621 75.8969 52.9946C75.9792 52.7065 76.0306 52.5419 76.0512 52.5007C76.0512 52.5007 76.0924 52.3876 76.1747 52.1612C76.257 51.9143 76.3393 51.6776 76.4216 51.4513C76.7714 50.4841 77.0904 49.6713 77.3785 49.0128C77.6666 48.3337 77.9238 47.8398 78.1502 47.5311C78.1707 47.4694 78.2016 47.3974 78.2428 47.3151C78.2839 47.2122 78.3148 47.1299 78.3354 47.0681C78.3559 46.9035 78.3765 46.78 78.3971 46.6977C78.4383 46.5948 78.4897 46.5022 78.5514 46.4199C78.5926 46.3376 78.6543 46.2347 78.7366 46.1113C78.8189 45.9672 78.9115 45.7923 79.0144 45.5865L79.1379 45.247C79.2614 44.9795 79.4157 44.6811 79.6009 44.3518C79.7861 44.0226 79.9199 43.7859 80.0022 43.6419C80.0845 43.4567 80.208 43.2406 80.3726 42.9937C80.5372 42.7262 80.6607 42.5512 80.743 42.4689L80.7121 42.4381C80.815 42.2529 80.9385 42.15 81.0825 42.1294C81.2472 42.0882 81.4221 42.0677 81.6073 42.0677C81.8954 42.0677 82.06 42.1088 82.1011 42.1911C82.1423 42.2734 82.1629 42.4586 82.1629 42.7467C82.1629 43.0554 82.1526 43.2818 82.132 43.4258C82.132 43.5493 82.0497 43.6933 81.8851 43.858H81.9159C81.9571 43.8168 81.9468 43.8682 81.8851 44.0123C81.8233 44.1358 81.7719 44.2284 81.7307 44.2901C81.6896 44.393 81.6381 44.5062 81.5764 44.6296C81.5353 44.7531 81.4838 44.8457 81.4221 44.9074C81.3603 44.9897 81.206 45.2676 80.9591 45.7408C80.7327 46.1936 80.4652 46.7286 80.1565 47.3459C79.8684 47.9633 79.5906 48.56 79.3231 49.1362C79.0556 49.7124 78.8601 50.1548 78.7366 50.4635L78.5823 50.9265C78.5411 51.0088 78.5206 51.0706 78.5206 51.1117C78.4588 51.2558 78.3971 51.3998 78.3354 51.5439C78.2736 51.6879 78.2119 51.8114 78.1502 51.9143L77.6254 53.7046L77.4711 54.3528L77.1933 55.0318L77.0081 55.6183C76.9669 55.7418 76.9361 55.855 76.9155 55.9579C76.8949 56.0608 76.8537 56.1431 76.792 56.2048C76.792 56.2254 76.7817 56.2562 76.7611 56.2974C76.7611 56.318 76.7611 56.3386 76.7611 56.3591C76.6788 56.6884 76.5862 57.1514 76.4833 57.7482C76.3804 58.3449 76.3084 58.9726 76.2673 59.631C76.2673 59.6516 76.257 59.6722 76.2364 59.6928C76.2364 59.7134 76.2364 59.7339 76.2364 59.7545C76.1747 60.1867 76.0718 60.4747 75.9277 60.6188C75.7837 60.7628 75.5676 60.7937 75.2795 60.7114ZM82.0237 60.5262C81.1183 60.5262 80.3774 60.1867 79.8013 59.5076C79.2251 58.8079 78.9473 57.9436 78.9678 56.9147C79.009 56.1739 79.1531 55.3817 79.4 54.538C79.6675 53.6737 80.0173 52.8506 80.4495 52.0686C80.8816 51.2661 81.3549 50.5664 81.8694 49.9696C82.3838 49.3729 82.9188 48.951 83.4744 48.7041C83.6802 48.6012 83.8963 48.5189 84.1227 48.4572C84.3696 48.3954 84.6165 48.3646 84.8635 48.3646C85.0898 48.3646 85.3265 48.4057 85.5734 48.488C85.8203 48.5498 86.0261 48.6218 86.1908 48.7041C86.5406 48.8481 86.8081 49.0231 86.9933 49.2288C87.1785 49.4346 87.3431 49.7536 87.4872 50.1857C87.5489 50.5767 87.5798 50.8545 87.5798 51.0191C87.5798 51.1837 87.5283 51.4307 87.4254 51.7599C87.1785 52.5007 86.8595 53.1387 86.4686 53.6737C86.0776 54.2087 85.5528 54.6614 84.8943 55.0318C84.7297 55.1347 84.5342 55.2171 84.3079 55.2788C84.1021 55.3199 83.886 55.3405 83.6597 55.3405C83.2481 55.3405 82.8468 55.2685 82.4558 55.1245C82.0854 54.9598 81.787 54.7232 81.5607 54.4145L81.3446 54.1676L81.252 54.4145C81.0462 54.9701 80.8816 55.4846 80.7581 55.9579C80.6553 56.4312 80.6038 56.8633 80.6038 57.2543C80.6038 57.5012 80.6244 57.7379 80.6655 57.9642C80.7273 58.1906 80.8096 58.3861 80.9125 58.5507C80.9948 58.6742 81.1285 58.7668 81.3138 58.8285C81.5195 58.8697 81.7356 58.8902 81.962 58.8902C82.106 58.8902 82.2501 58.8902 82.3941 58.8902C82.5587 58.8697 82.7131 58.8285 82.8571 58.7668C83.2069 58.6433 83.4847 58.5095 83.6905 58.3655C83.9169 58.2215 84.1432 58.0671 84.3696 57.9025L84.4931 57.8408H84.4622C84.7091 57.7173 84.9252 57.5938 85.1104 57.4704C85.3162 57.3469 85.4191 57.2851 85.4191 57.2851C85.5014 57.2851 85.5837 57.2337 85.666 57.1308C85.8306 57.0485 86.0364 57.0794 86.2834 57.2234C86.5509 57.3675 86.6846 57.5527 86.6846 57.779C86.664 57.8819 86.5714 58.0465 86.4068 58.2729C86.2422 58.4787 86.057 58.6742 85.8512 58.8594C85.666 59.0446 85.5117 59.1475 85.3882 59.168C85.3676 59.1886 85.2956 59.2298 85.1721 59.2915C85.0487 59.3327 84.9664 59.3738 84.9252 59.415H84.9561C84.7709 59.6619 84.5857 59.7854 84.4005 59.7854H84.1535C84.0712 59.9294 83.8037 60.0941 83.351 60.2793C82.8983 60.4439 82.4558 60.5262 82.0237 60.5262ZM83.4127 53.7354C83.7831 53.7354 84.1021 53.6325 84.3696 53.4268C84.6577 53.2004 84.9046 52.9535 85.1104 52.6859C85.522 52.1303 85.7586 51.5953 85.8203 51.0809C85.9027 50.5458 85.8409 50.1754 85.6351 49.9696C85.5117 49.9079 85.3985 49.877 85.2956 49.877C85.2133 49.8565 85.0384 49.8873 84.7709 49.9696C84.5857 50.0108 84.3284 50.1651 83.9992 50.4326C83.6699 50.7002 83.3407 50.9985 83.0114 51.3278C82.7028 51.657 82.4661 51.9348 82.3015 52.1612L81.9002 52.8094C82.0648 52.7477 82.2192 52.7168 82.3632 52.7168C82.5279 52.6962 82.6205 52.7065 82.641 52.7477C82.641 52.9329 82.6719 53.1078 82.7336 53.2724C82.8159 53.4165 82.9086 53.5296 83.0114 53.612C83.1349 53.6943 83.2687 53.7354 83.4127 53.7354ZM96.2063 60.2175C95.98 60.1764 95.7433 60.0632 95.4964 59.878C95.27 59.6722 95.0642 59.4458 94.879 59.1989C94.7144 58.9314 94.6012 58.6947 94.5395 58.489C94.5395 58.4478 94.5086 58.3964 94.4469 58.3346C94.4057 58.2729 94.3852 58.242 94.3852 58.242C94.3028 58.1803 94.2514 57.9128 94.2308 57.4395C94.2308 56.9456 94.2617 56.4003 94.3234 55.8035C94.3852 55.2068 94.4572 54.7335 94.5395 54.3836C94.6424 54.0544 94.7967 53.612 95.0025 53.0564C95.2083 52.4802 95.3832 51.9657 95.5272 51.513L96.3607 49.7227L95.126 49.3832C94.9819 49.342 94.8585 49.2597 94.7556 49.1362C94.6733 49.0128 94.6321 48.9099 94.6321 48.8276C94.6321 48.6629 94.7247 48.4674 94.9099 48.2411C95.0951 47.9941 95.2289 47.8707 95.3112 47.8707C95.4141 47.8913 95.5993 47.9015 95.8668 47.9015C96.1549 47.9015 96.4327 47.8913 96.7002 47.8707C96.9677 47.8501 97.1323 47.8295 97.1941 47.8089C97.2764 47.7678 97.3587 47.7163 97.441 47.6546C97.5233 47.5723 97.5851 47.4591 97.6262 47.3151C97.7291 47.0887 97.8217 46.8829 97.904 46.6977C97.9863 46.4919 98.0995 46.2656 98.2435 46.0187C98.3876 45.7511 98.5008 45.5248 98.5831 45.3396C98.686 45.1544 98.8403 44.8971 99.0461 44.5679C99.149 44.4239 99.2622 44.2489 99.3856 44.0432C99.5091 43.8374 99.6634 43.6625 99.8486 43.5184C100.034 43.3538 100.219 43.2818 100.404 43.3023C100.61 43.3023 100.867 43.4361 101.176 43.7036C101.341 43.9094 101.433 44.0637 101.454 44.1666C101.474 44.2695 101.392 44.465 101.207 44.7531C101.042 45.1029 100.847 45.4528 100.62 45.8026C100.415 46.1524 100.219 46.5022 100.034 46.8521C99.7046 47.3048 99.6429 47.562 99.8486 47.6237C100.054 47.6855 100.631 47.6443 101.577 47.5003C102.174 47.3974 102.606 47.4283 102.874 47.5929C103.141 47.7369 103.295 47.9839 103.337 48.3337C103.398 48.8276 103.347 49.1259 103.182 49.2288C103.018 49.3317 102.544 49.3832 101.762 49.3832C101.269 49.4655 100.847 49.5169 100.497 49.5375C100.147 49.5375 99.8898 49.5375 99.7252 49.5375C99.4577 49.5581 99.2827 49.5684 99.2004 49.5684C99.1181 49.5684 98.9946 49.5889 98.83 49.6301C98.6654 49.6713 98.5419 49.7433 98.4596 49.8462C98.3979 49.9285 98.3259 50.052 98.2435 50.2166C98.1612 50.2989 98.0378 50.515 97.8731 50.8648C97.7085 51.2146 97.5027 51.5953 97.2558 52.0069C96.9677 52.8712 96.7208 53.7354 96.515 54.5997C96.3092 55.4434 96.1446 56.2665 96.0211 57.0691C95.9388 57.5835 95.9491 57.9436 96.052 58.1494C96.1549 58.3346 96.4224 58.4478 96.8545 58.489C97.0809 58.5095 97.441 58.5095 97.9349 58.489C98.4493 58.4478 98.8506 58.3861 99.1387 58.3038C99.3651 58.2009 99.6017 58.098 99.8486 57.9951C100.096 57.8716 100.322 57.7482 100.528 57.6247C100.713 57.5218 100.898 57.4189 101.083 57.316C101.269 57.1925 101.361 57.1308 101.361 57.1308C101.464 56.9662 101.577 56.9147 101.701 56.9765C101.824 57.0382 101.927 57.1925 102.009 57.4395C102.009 57.6864 101.958 57.9436 101.855 58.2112C101.752 58.4787 101.371 58.7976 100.713 59.168C99.7869 59.7442 98.9329 60.0941 98.1509 60.2175C97.3896 60.3204 96.7413 60.3204 96.2063 60.2175ZM112.307 59.4767C111.792 59.7237 111.329 59.7957 110.918 59.6928C110.506 59.5693 110.177 59.2915 109.93 58.8594C109.703 58.4272 109.59 57.8819 109.59 57.2234C109.59 56.9971 109.621 56.6575 109.683 56.2048C109.765 55.7521 109.858 55.2788 109.961 54.7849C110.064 54.2705 110.177 53.828 110.3 53.4576C110.362 53.2724 110.403 53.1284 110.424 53.0255C110.465 52.9226 110.444 52.8712 110.362 52.8712C110.28 52.8712 110.177 52.9226 110.053 53.0255C109.95 53.1284 109.868 53.2107 109.806 53.2724C109.354 53.6428 108.88 54.0955 108.386 54.6306C107.913 55.1656 107.471 55.7109 107.059 56.2665C106.648 56.8016 106.308 57.2954 106.041 57.7482C105.794 58.2009 105.67 58.5301 105.67 58.7359C105.67 59.0446 105.516 59.2606 105.207 59.3841C104.899 59.5076 104.631 59.4973 104.405 59.3532C104.014 59.1269 103.767 58.8594 103.664 58.5507C103.582 58.2215 103.571 57.6761 103.633 56.9147C103.695 55.9476 103.777 55.0833 103.88 54.3219C103.983 53.5605 104.147 52.7374 104.374 51.8525C104.621 50.9471 104.94 49.8462 105.331 48.5498C105.598 47.8295 105.845 47.1504 106.071 46.5125C106.298 45.854 106.493 45.2984 106.658 44.8457C106.843 44.393 106.956 44.1152 106.997 44.0123C107.1 43.9094 107.234 43.6625 107.399 43.2715C107.563 42.8599 107.707 42.4484 107.831 42.0368C107.975 41.6252 108.047 41.3783 108.047 41.296C108.047 41.1314 108.078 40.9873 108.14 40.8638C108.201 40.7198 108.273 40.6066 108.356 40.5243C108.438 40.442 108.51 40.37 108.572 40.3082C108.633 40.2465 108.664 40.2156 108.664 40.2156C108.767 40.2156 108.891 40.2465 109.035 40.3082C109.199 40.37 109.354 40.4626 109.498 40.586C109.642 40.6889 109.734 40.8227 109.776 40.9873C109.92 41.2754 109.992 41.5738 109.992 41.8825C109.992 42.1706 109.899 42.5307 109.714 42.9628C109.549 43.3949 109.261 43.9917 108.849 44.7531C108.52 45.391 108.222 46.0495 107.954 46.7286C107.687 47.4077 107.43 48.1176 107.183 48.8584C107.08 49.1671 106.936 49.5992 106.751 50.1548C106.586 50.7105 106.411 51.2866 106.226 51.8834C106.061 52.4802 105.917 53.0152 105.794 53.4885C105.691 53.9412 105.639 54.2293 105.639 54.3528C105.639 54.4968 105.722 54.5688 105.886 54.5688C106.051 54.5483 106.215 54.4248 106.38 54.1984C106.462 54.0338 106.637 53.828 106.905 53.5811C107.172 53.3342 107.388 53.1387 107.553 52.9946C107.718 52.8506 107.944 52.6448 108.232 52.3773C108.52 52.1098 108.829 51.8422 109.158 51.5747C109.487 51.2866 109.796 51.05 110.084 50.8648C110.372 50.659 110.599 50.5561 110.763 50.5561C111.031 50.5561 111.278 50.659 111.504 50.8648C111.73 51.05 111.885 51.2558 111.967 51.4821C112.029 51.5439 112.091 51.6262 112.152 51.7291C112.214 51.8114 112.255 51.8731 112.276 51.9143C112.379 51.9966 112.379 52.3567 112.276 52.9946C112.193 53.612 111.988 54.4145 111.658 55.4023C111.473 56.1636 111.319 56.8119 111.195 57.3469C111.093 57.8613 111.123 58.1186 111.288 58.1186C111.288 58.1186 111.391 58.0568 111.597 57.9334C111.823 57.8099 112.06 57.6761 112.307 57.5321C112.903 57.1411 113.418 56.9147 113.85 56.853C114.303 56.7707 114.529 56.8427 114.529 57.0691C114.529 57.1514 114.498 57.2337 114.436 57.316C114.375 57.3777 114.344 57.4498 114.344 57.5321C114.344 57.5321 114.344 57.5424 114.344 57.563C114.344 57.563 114.344 57.6041 114.344 57.6864C114.344 57.7276 114.21 57.8922 113.943 58.1803C113.675 58.4478 113.377 58.7256 113.047 59.0137C112.739 59.2812 112.492 59.4356 112.307 59.4767ZM117.358 59.6928C116.555 59.3635 116.031 58.9108 115.784 58.3346C115.557 57.7379 115.516 56.8221 115.66 55.5875C115.701 54.9495 115.722 54.5277 115.722 54.3219C115.722 54.1161 115.609 53.9103 115.382 53.7046C115.321 53.6223 115.208 53.5091 115.043 53.365C114.899 53.221 114.837 53.0975 114.858 52.9946C114.837 52.8506 114.847 52.6962 114.889 52.5316C114.93 52.3464 114.991 52.2538 115.074 52.2538C115.156 52.2538 115.238 52.2332 115.321 52.1921C115.424 52.1509 115.516 52.1509 115.598 52.1921C115.681 52.1921 115.773 52.2024 115.876 52.2229C115.979 52.2435 116.031 52.295 116.031 52.3773C116.113 52.5213 116.247 52.5419 116.432 52.439C116.617 52.3155 116.813 52.048 117.018 51.6365C117.224 51.3072 117.492 50.978 117.821 50.6487C118.171 50.3195 118.51 50.0211 118.84 49.7536C119.189 49.4655 119.477 49.2597 119.704 49.1362C119.807 49.0951 119.961 49.0436 120.167 48.9819C120.373 48.9202 120.589 48.8687 120.815 48.8276C121.062 48.7864 121.268 48.7761 121.432 48.7967C121.803 48.8173 122.111 48.9202 122.358 49.1054C122.626 49.2906 122.873 49.5066 123.099 49.7536C123.367 49.9388 123.531 50.1857 123.593 50.4944C123.675 50.8031 123.696 51.1323 123.655 51.4821C123.614 51.832 123.521 52.1509 123.377 52.439C123.315 52.6448 123.14 52.8917 122.852 53.1798C122.564 53.4679 122.235 53.7457 121.865 54.0132C121.494 54.2807 121.155 54.4762 120.846 54.5997C120.578 54.6614 120.229 54.7129 119.796 54.754C119.385 54.7952 118.994 54.8158 118.623 54.8158C118.274 54.7952 118.037 54.754 117.914 54.6923C117.769 54.61 117.656 54.7232 117.574 55.0318C117.492 55.3405 117.43 55.7829 117.389 56.3591C117.348 56.8119 117.348 57.1411 117.389 57.3469C117.43 57.5527 117.471 57.6967 117.512 57.779C117.656 57.9231 117.852 58.1083 118.099 58.3346C118.366 58.5404 118.737 58.5713 119.21 58.4272C119.601 58.3243 119.982 58.0568 120.352 57.6247C120.743 57.1925 121.103 56.8427 121.432 56.5752C121.515 56.4312 121.648 56.3488 121.834 56.3283C122.039 56.2871 122.256 56.2974 122.482 56.3591C122.708 56.5032 122.801 56.6781 122.76 56.8839C122.739 57.0691 122.636 57.3572 122.451 57.7482C122.389 57.8922 122.245 58.0774 122.019 58.3038C121.813 58.5095 121.576 58.7256 121.309 58.952C121.062 59.1578 120.836 59.3224 120.63 59.4458C120.012 59.7751 119.436 59.95 118.901 59.9706C118.366 59.9706 117.852 59.878 117.358 59.6928ZM119.179 53.4268C119.632 53.3239 119.992 53.2518 120.259 53.2107C120.527 53.1695 120.784 53.0564 121.031 52.8712C121.278 52.6654 121.587 52.2847 121.957 51.7291C122.039 51.5027 122.06 51.2764 122.019 51.05C121.998 50.8236 121.947 50.6693 121.865 50.587C121.679 50.3812 121.453 50.3195 121.185 50.4018C120.939 50.4635 120.702 50.5767 120.475 50.7413C120.331 50.8031 120.115 50.9574 119.827 51.2043C119.56 51.4307 119.292 51.6982 119.025 52.0069C118.757 52.295 118.541 52.5625 118.377 52.8094C118.212 53.0564 118.171 53.2004 118.253 53.2416C118.212 53.3239 118.325 53.3753 118.593 53.3959C118.881 53.4165 119.076 53.4268 119.179 53.4268ZM133.701 66.3292C133.31 66.4938 132.878 66.5453 132.405 66.4835C131.952 66.4424 131.499 66.3086 131.047 66.0823C130.615 65.8559 130.224 65.5781 129.874 65.2489C129.73 65.1048 129.575 64.8785 129.411 64.5698C129.267 64.2817 129.153 64.0039 129.071 63.7364C129.009 63.4689 129.02 63.3145 129.102 63.2734C129.184 63.2116 129.298 63.1911 129.442 63.2116C129.586 63.2322 129.719 63.2631 129.843 63.3042C129.987 63.366 130.059 63.438 130.059 63.5203C130.182 63.6232 130.398 63.7775 130.707 63.9833C131.016 64.2097 131.252 64.3434 131.417 64.3846C131.849 64.5286 132.168 64.5904 132.374 64.5698C132.58 64.5492 132.765 64.4772 132.93 64.3537C133.259 64.0656 133.516 63.7158 133.701 63.3042C133.886 62.8927 134.082 62.3268 134.288 61.6065L134.38 61.2053C134.545 60.4439 134.73 59.631 134.936 58.7668C135.142 57.9025 135.317 57.2234 135.461 56.7295C135.564 56.2562 135.594 55.9373 135.553 55.7727C135.533 55.608 135.44 55.6389 135.275 55.8653C135.193 55.8858 135.08 55.927 134.936 55.9887C134.812 56.0505 134.668 56.1225 134.504 56.2048C134.257 56.3283 134.01 56.4517 133.763 56.5752C133.516 56.6781 133.31 56.7501 133.146 56.7913C132.981 56.7913 132.827 56.8016 132.683 56.8221C132.539 56.8221 132.467 56.8221 132.467 56.8221C132.302 56.925 132.004 56.9147 131.571 56.7913C131.16 56.6472 130.789 56.4414 130.46 56.1739C130.275 55.927 130.141 55.7418 130.059 55.6183C129.977 55.4743 129.925 55.3302 129.905 55.1862C129.884 55.0216 129.874 54.7746 129.874 54.4454C129.853 54.1161 130.007 53.6428 130.337 53.0255C130.687 52.3876 131.108 51.7908 131.602 51.2352C131.993 50.8442 132.497 50.4429 133.115 50.0314C133.732 49.6198 134.349 49.2803 134.967 49.0128C135.605 48.7452 136.129 48.6218 136.541 48.6424C136.747 48.6629 136.942 48.6938 137.127 48.735C137.313 48.7555 137.518 48.8481 137.745 49.0128C138.033 49.1568 138.239 49.3111 138.362 49.4758C138.486 49.6404 138.65 49.9594 138.856 50.4326C138.98 50.7619 139.072 51.0911 139.134 51.4204C139.196 51.7291 139.226 52.0275 139.226 52.3155C139.226 52.6242 139.185 52.902 139.103 53.149C139.021 53.3959 138.907 53.5914 138.763 53.7354C138.722 53.7354 138.671 53.7457 138.609 53.7663C138.568 53.7663 138.527 53.7766 138.486 53.7972C138.362 53.8383 138.259 53.8589 138.177 53.8589C138.115 53.8589 138.043 53.9309 137.961 54.075C137.879 54.1984 137.817 54.3631 137.776 54.5688C137.755 54.6923 137.724 54.8158 137.683 54.9392C137.663 55.0627 137.632 55.1759 137.591 55.2788C137.549 55.3817 137.508 55.4743 137.467 55.5566C137.446 55.6183 137.436 55.6698 137.436 55.7109C137.436 55.7727 137.426 55.8241 137.405 55.8653C137.385 55.9064 137.354 55.9579 137.313 56.0196C137.251 56.1225 137.189 56.2562 137.127 56.4209C137.086 56.5649 137.066 56.7193 137.066 56.8839L136.942 57.2234C136.881 57.4292 136.819 57.6144 136.757 57.779C136.716 57.9436 136.695 58.0465 136.695 58.0877L136.572 58.705C136.531 58.8491 136.479 58.9828 136.418 59.1063C136.376 59.2092 136.335 59.3738 136.294 59.6002C136.253 59.806 136.201 60.1455 136.14 60.6188C135.728 62.3885 135.317 63.7158 134.905 64.6007C134.494 65.5061 134.092 66.0823 133.701 66.3292ZM131.571 55.1245C132.106 55.3302 132.662 55.3508 133.238 55.1862C133.814 55.0216 134.473 54.6512 135.214 54.075C135.687 53.7251 136.078 53.3239 136.387 52.8712C136.716 52.3979 136.953 51.9143 137.097 51.4204C137.2 51.1117 137.23 50.8957 137.189 50.7722C137.148 50.6281 137.014 50.5458 136.788 50.5253C136.438 50.4429 135.996 50.5047 135.461 50.7105C134.926 50.8957 134.38 51.1632 133.825 51.513C133.722 51.657 133.598 51.7908 133.454 51.9143C133.31 52.0377 133.177 52.1406 133.053 52.2229C132.95 52.2847 132.899 52.3155 132.899 52.3155C132.878 52.3567 132.847 52.4081 132.806 52.4699C132.786 52.5316 132.734 52.5831 132.652 52.6242C132.446 52.8094 132.24 53.0872 132.034 53.4576C131.829 53.828 131.674 54.1779 131.571 54.5071C131.489 54.8364 131.489 55.0421 131.571 55.1245ZM140.06 59.3532C139.875 59.2092 139.741 59.0652 139.659 58.9211C139.597 58.7771 139.597 58.4993 139.659 58.0877C139.721 57.5115 139.803 57.0073 139.906 56.5752C140.009 56.1225 140.132 55.608 140.276 55.0318C140.318 54.7849 140.431 54.3631 140.616 53.7663C140.822 53.1695 141.069 52.5213 141.357 51.8217C141.645 51.122 141.933 50.4635 142.221 49.8462C142.509 49.2083 142.756 48.735 142.962 48.4263C143.126 48.3028 143.322 48.2514 143.548 48.272C143.795 48.2925 144.001 48.3851 144.166 48.5498C144.392 48.735 144.423 49.0642 144.258 49.5375C144.114 49.9902 143.806 50.7105 143.332 51.6982C143.085 52.2538 142.9 52.6757 142.777 52.9638C142.653 53.2313 142.602 53.3959 142.622 53.4576C142.643 53.4988 142.735 53.4679 142.9 53.365C143.024 53.1387 143.25 52.8814 143.579 52.5933C143.908 52.2847 144.258 51.9863 144.629 51.6982C144.999 51.4101 145.349 51.1529 145.678 50.9265C146.007 50.7002 146.234 50.5561 146.357 50.4944C146.522 50.3915 146.707 50.3092 146.913 50.2474C147.139 50.1651 147.294 50.1034 147.376 50.0622C147.849 49.8359 148.333 49.7536 148.827 49.8153C149.32 49.877 149.629 50.0622 149.753 50.3709C149.773 50.5355 149.835 50.659 149.938 50.7413C150.061 50.8236 150.123 50.8648 150.123 50.8648C150.205 50.8648 150.246 50.8957 150.246 50.9574C150.267 51.0191 150.277 51.05 150.277 51.05C150.277 51.194 150.164 51.2866 149.938 51.3278C149.732 51.3484 149.464 51.369 149.135 51.3895C148.868 51.4101 148.631 51.4616 148.425 51.5439C148.22 51.6262 147.973 51.7291 147.684 51.8525C146.903 52.3053 146.151 52.7477 145.431 53.1798C144.732 53.612 144.052 54.1881 143.394 54.9084C143.25 55.073 143.106 55.2685 142.962 55.4949C142.818 55.7212 142.663 55.9682 142.499 56.2357C142.396 56.3386 142.293 56.5649 142.19 56.9147C142.087 57.2646 141.995 57.6041 141.912 57.9334C141.851 58.242 141.82 58.4272 141.82 58.489C141.82 58.489 141.789 58.5919 141.727 58.7976C141.665 58.9828 141.563 59.168 141.418 59.3532C141.172 59.6825 140.966 59.8471 140.801 59.8471C140.636 59.8471 140.39 59.6825 140.06 59.3532ZM149.684 59.4458C149.519 59.2812 149.396 59.0754 149.314 58.8285C149.252 58.5816 149.231 58.3346 149.252 58.0877C149.272 57.8408 149.324 57.635 149.406 57.4704C149.406 57.3057 149.427 57.1823 149.468 57.0999C149.53 56.9971 149.55 56.9045 149.53 56.8221C149.509 56.7398 149.53 56.5958 149.591 56.39C149.653 56.1842 149.715 55.9887 149.777 55.8035C149.921 55.4743 150.075 55.0833 150.24 54.6306C150.404 54.1573 150.559 53.6943 150.703 53.2416C150.847 52.7888 150.97 52.3979 151.073 52.0686C151.176 51.7394 151.238 51.5336 151.258 51.4513C151.258 51.2043 151.423 51.0706 151.752 51.05C151.999 50.9677 152.184 50.9677 152.308 51.05C152.431 51.1117 152.596 51.3072 152.802 51.6365C152.966 51.8011 153.028 52.048 152.987 52.3773C152.946 52.7065 152.812 53.1181 152.586 53.612C152.503 53.7766 152.4 54.0132 152.277 54.3219C152.174 54.6306 152.102 54.9084 152.061 55.1553C151.979 55.3199 151.876 55.5566 151.752 55.8653C151.649 56.1534 151.557 56.4312 151.474 56.6987C151.433 56.8016 151.392 56.9559 151.351 57.1617C151.31 57.3469 151.258 57.5527 151.197 57.779C151.135 57.9848 151.052 58.17 150.95 58.3346C150.764 59.1783 150.589 59.6722 150.425 59.8163C150.281 59.9603 150.034 59.8368 149.684 59.4458ZM152.678 46.9138C152.575 46.8109 152.483 46.6669 152.4 46.4817C152.318 46.2759 152.267 46.0907 152.246 45.9261C152.225 45.7408 152.246 45.6482 152.308 45.6482C152.472 45.6277 152.668 45.4528 152.894 45.1235C153.121 44.7943 153.213 44.5062 153.172 44.2592C153.172 44.1769 153.203 44.1049 153.265 44.0432C153.326 43.9608 153.398 43.9094 153.481 43.8888C153.728 43.7242 153.964 43.7036 154.191 43.8271C154.438 43.93 154.664 44.146 154.87 44.4753C155.055 44.8663 155.106 45.1955 155.024 45.463C154.942 45.71 154.715 46.0598 154.345 46.5125C154.036 46.9241 153.748 47.1504 153.481 47.1916C153.234 47.2328 152.966 47.1402 152.678 46.9138ZM161.601 60.1249C161.519 60.1249 161.395 60.1146 161.23 60.0941C161.086 60.0529 160.963 59.9603 160.86 59.8163C160.551 59.4458 160.356 59.1372 160.274 58.8902C160.191 58.6433 160.181 58.2832 160.243 57.8099C160.284 57.5012 160.304 57.2337 160.304 57.0073C160.325 56.7604 160.346 56.5546 160.366 56.39C160.284 56.3077 160.13 56.3694 159.903 56.5752C159.697 56.7604 159.409 56.9971 159.039 57.2851C158.339 58.0877 157.712 58.705 157.156 59.1372C156.621 59.5487 156.137 59.8265 155.705 59.9706C155.273 60.0941 154.862 60.1352 154.471 60.0941C154.121 60.0529 153.843 59.9089 153.637 59.6619C153.431 59.3944 153.298 59.0549 153.236 58.6433C153.195 58.2317 153.195 57.7893 153.236 57.316C153.318 56.6369 153.462 55.9887 153.668 55.3714C153.894 54.754 154.255 54.0647 154.748 53.3033C154.975 52.8917 155.273 52.4905 155.644 52.0995C156.035 51.6879 156.456 51.3278 156.909 51.0191C157.382 50.6899 157.835 50.4532 158.267 50.3092C158.741 50.124 159.224 50.0211 159.718 50.0005C160.212 49.9594 160.654 50.0005 161.045 50.124C161.292 50.2474 161.488 50.3092 161.632 50.3092C161.796 50.3092 161.92 50.2063 162.002 50.0005C162.105 49.8359 162.208 49.5889 162.311 49.2597C162.414 48.9099 162.537 48.6115 162.681 48.3646L163.36 46.3582C163.587 45.8026 163.834 45.2161 164.101 44.5988C164.369 43.9814 164.688 43.2303 165.058 42.3455C165.408 41.687 165.696 41.3063 165.922 41.2034C166.149 41.0799 166.406 41.1622 166.694 41.4503C166.92 41.7178 167.003 42.0265 166.941 42.3763C166.879 42.7056 166.694 43.2406 166.385 43.9814C166.241 44.2078 166.118 44.4239 166.015 44.6296C165.912 44.8148 165.768 45.1132 165.583 45.5248C165.315 46.1627 165.068 46.7389 164.842 47.2533C164.616 47.7472 164.379 48.3131 164.132 48.951C164.05 49.2803 163.936 49.661 163.792 50.0931C163.669 50.5253 163.566 50.9162 163.484 51.2661C163.422 51.5953 163.35 51.904 163.268 52.1921C163.206 52.4596 163.134 52.5933 163.052 52.5933C162.887 52.7785 162.733 53.1078 162.589 53.5811C162.445 54.0338 162.321 54.5071 162.218 55.001C162.136 55.4949 162.064 55.9064 162.002 56.2357C161.961 56.4826 161.93 56.8016 161.91 57.1925C161.889 57.5835 161.879 57.9642 161.879 58.3346C161.879 58.6845 161.879 58.9314 161.879 59.0754C161.879 59.5282 161.868 59.8163 161.848 59.9397C161.827 60.0632 161.745 60.1249 161.601 60.1249ZM155.026 58.1803C155.458 58.1803 155.911 57.9951 156.384 57.6247C156.878 57.2543 157.372 56.8427 157.866 56.39C158.175 56.1019 158.504 55.7212 158.854 55.2479C159.224 54.7746 159.574 54.3013 159.903 53.828C160.253 53.3547 160.531 52.9432 160.737 52.5933C160.942 52.2229 161.045 51.9966 161.045 51.9143C161.045 51.8114 160.953 51.7394 160.767 51.6982C160.582 51.657 160.366 51.6365 160.119 51.6365C159.893 51.6159 159.708 51.6262 159.564 51.6673C159.111 51.7702 158.658 51.976 158.205 52.2847C157.773 52.5933 157.3 53.0564 156.786 53.6737C156.251 54.3322 155.808 55.0113 155.458 55.7109C155.129 56.4106 154.923 56.9971 154.841 57.4704C154.759 57.9436 154.82 58.1803 155.026 58.1803Z" fill="white"/>
<path d="M176.799 94.2387L184.843 95.1938L181.648 87.75L176.799 94.2387ZM172.367 53.2237L172.509 53.9106C181.29 52.0882 187.611 52.8254 191.824 55.0274C196.008 57.214 198.2 60.8888 198.669 65.1843C199.615 73.8482 193.52 85.0763 182.271 91.1299L182.603 91.7476L182.935 92.3654C194.563 86.1082 201.086 74.3929 200.064 65.0319C199.549 60.315 197.11 56.2069 192.474 53.784C187.868 51.3765 181.181 50.6778 172.224 52.5368L172.367 53.2237Z" fill="white"/>
<path d="M299.058 101.212L291.381 98.6297L297.456 93.2716L299.058 101.212ZM332.712 50.3346L332.53 51.0122C313.699 45.968 299.652 51.1018 292.708 60.4288C285.767 69.7524 285.754 83.4872 295.435 96.0454L294.88 96.4737L294.324 96.902C284.328 83.9356 284.203 69.504 291.583 59.5909C298.961 49.681 313.669 44.5076 332.893 49.6569L332.712 50.3346Z" fill="white"/>
<path d="M342.783 62.1622C342.474 62.0387 342.155 61.9049 341.826 61.7609C341.517 61.6168 341.219 61.4008 340.931 61.1127C340.663 60.8452 340.427 60.4645 340.221 59.9706C340.015 59.3738 339.871 58.7873 339.789 58.2112C339.727 57.635 339.706 56.9662 339.727 56.2048C339.727 55.1347 339.799 54.2087 339.943 53.4268C340.108 52.6242 340.354 51.8114 340.684 50.9883C340.725 50.9265 340.797 50.7516 340.9 50.4635C341.023 50.1548 341.157 49.8256 341.301 49.4758C341.466 49.1259 341.589 48.8584 341.671 48.6732C341.836 48.3234 342.083 47.8604 342.412 47.2842C342.762 46.6874 343.133 46.1113 343.524 45.5556C344.12 44.6708 344.614 43.9711 345.005 43.4567C345.396 42.9422 345.767 42.5101 346.116 42.1603C346.466 41.8104 346.857 41.4812 347.289 41.1725C347.742 40.8433 348.318 40.442 349.018 39.9687C349.471 39.6394 349.964 39.4645 350.499 39.444C351.055 39.4234 351.57 39.5468 352.043 39.8144C352.516 40.0613 352.866 40.4317 353.092 40.9256C353.319 41.3577 353.432 41.8825 353.432 42.4998C353.432 43.0966 353.339 43.7345 353.154 44.4136C352.969 45.0721 352.712 45.6997 352.382 46.2965C352.053 46.8932 351.672 47.3871 351.24 47.7781C350.973 48.025 350.726 48.1176 350.499 48.0559C350.294 47.9941 350.047 47.8295 349.759 47.562C349.573 47.2122 349.471 47.0064 349.45 46.9447C349.45 46.8829 349.491 46.8418 349.573 46.8212C349.697 46.6772 349.862 46.4302 350.067 46.0804C350.273 45.7306 350.479 45.3602 350.685 44.9692C350.89 44.5576 351.035 44.2284 351.117 43.9814C351.281 43.1171 351.395 42.5101 351.456 42.1603C351.518 41.7899 351.456 41.5121 351.271 41.3269C351.189 41.2445 351.065 41.2137 350.901 41.2342C350.757 41.2548 350.51 41.3577 350.16 41.5429C349.687 41.7487 349.069 42.2117 348.308 42.9319C347.547 43.6316 346.847 44.4136 346.209 45.2778C345.386 46.3685 344.696 47.3356 344.141 48.1794C343.585 49.0231 343.163 49.8873 342.875 50.7722C342.834 50.8545 342.762 51.0088 342.659 51.2352C342.577 51.4616 342.536 51.5747 342.536 51.5747C342.556 51.657 342.525 51.8628 342.443 52.1921C342.361 52.5007 342.268 52.7683 342.165 52.9946C341.939 53.9412 341.805 54.929 341.764 55.9579C341.723 56.9662 341.774 57.8613 341.918 58.6433C342.083 59.4253 342.32 59.9706 342.628 60.2793C342.896 60.4645 343.256 60.5262 343.709 60.4645C344.182 60.4027 344.717 60.2587 345.314 60.0323C345.911 59.806 346.518 59.559 347.135 59.2915C347.629 59.0857 348.082 58.8594 348.493 58.6124C348.905 58.3655 349.213 58.1494 349.419 57.9642C349.584 57.8408 349.79 57.7173 350.036 57.5938C350.304 57.4498 350.53 57.3777 350.716 57.3777C351.004 57.2749 351.168 57.2337 351.209 57.2543C351.251 57.2749 351.271 57.3675 351.271 57.5321C351.271 57.8202 351.107 58.1391 350.777 58.489C350.469 58.8388 350.067 59.1578 349.573 59.4458C349.409 59.6105 349.193 59.7854 348.925 59.9706C348.658 60.1558 348.38 60.2998 348.092 60.4027C347.66 60.732 347.125 61.0509 346.487 61.3596C345.849 61.6683 345.201 61.9049 344.542 62.0696C343.904 62.2342 343.318 62.265 342.783 62.1622ZM353.531 58.7668C353.387 58.7873 353.233 58.7873 353.068 58.7668C352.924 58.7256 352.78 58.6536 352.636 58.5507C352.472 58.3861 352.358 58.2626 352.297 58.1803C352.235 58.0774 352.214 57.9231 352.235 57.7173C352.276 57.5115 352.348 57.1925 352.451 56.7604C352.554 56.4312 352.677 55.9784 352.821 55.4023C352.966 54.8055 353.12 54.219 353.284 53.6428C353.346 53.3136 353.429 52.974 353.531 52.6242C353.655 52.2744 353.778 51.9554 353.902 51.6673C354.025 51.3587 354.118 51.122 354.18 50.9574C354.344 50.3812 354.499 49.877 354.643 49.4449C354.807 49.0128 355.003 48.5189 355.229 47.9633C355.455 47.3871 355.733 46.6257 356.063 45.6791C356.515 44.4444 356.855 43.5081 357.081 42.8702C357.328 42.2117 357.503 41.7384 357.606 41.4503C357.729 41.1416 357.812 40.905 357.853 40.7404C357.853 40.5758 357.894 40.4523 357.976 40.37C358.079 40.2877 358.203 40.2465 358.347 40.2465C358.635 40.2465 358.861 40.3905 359.026 40.6786C359.211 40.9462 359.324 41.2754 359.365 41.6664C359.406 42.0368 359.345 42.3866 359.18 42.7159C358.851 43.4567 358.501 44.3415 358.131 45.3704C357.76 46.3788 357.4 47.3768 357.05 48.3646C356.7 49.3317 356.371 50.1548 356.063 50.8339C356.063 50.9162 356.032 51.0603 355.97 51.2661C355.908 51.4718 355.836 51.657 355.754 51.8217C355.672 51.9863 355.589 52.1406 355.507 52.2847C355.445 52.4287 355.414 52.5007 355.414 52.5007C355.414 52.5831 355.383 52.7374 355.322 52.9638C355.26 53.1901 355.178 53.4679 355.075 53.7972C354.992 54.0441 354.89 54.3631 354.766 54.754C354.663 55.145 354.591 55.4743 354.55 55.7418C354.653 55.5566 354.869 55.2788 355.198 54.9084C355.527 54.538 355.836 54.219 356.124 53.9515C356.453 53.6634 356.824 53.3444 357.235 52.9946C357.647 52.6448 357.976 52.3876 358.223 52.2229C358.47 52.0583 358.686 51.9143 358.871 51.7908C359.077 51.6468 359.18 51.5747 359.18 51.5747C359.18 51.4924 359.211 51.4513 359.273 51.4513C359.355 51.4307 359.437 51.4204 359.52 51.4204C359.602 51.4204 359.643 51.4101 359.643 51.3895C359.664 51.369 359.674 51.3175 359.674 51.2352C359.674 51.1323 359.787 51.0397 360.013 50.9574C360.26 50.8751 360.538 50.8133 360.847 50.7722C361.176 50.7105 361.444 50.6796 361.649 50.6796C361.896 50.6796 362.092 50.731 362.236 50.8339C362.38 50.9368 362.565 51.1632 362.792 51.513C363.038 51.8422 363.193 52.2435 363.255 52.7168C363.337 53.1695 363.296 53.6428 363.131 54.1367C363.131 54.3013 363.1 54.538 363.038 54.8466C362.997 55.1347 362.977 55.4434 362.977 55.7727L362.792 56.7604H363.285C363.45 56.7604 363.604 56.7913 363.748 56.853C363.892 56.8942 363.964 56.9147 363.964 56.9147C364.047 56.9971 364.129 57.0794 364.211 57.1617C364.294 57.2234 364.376 57.2543 364.458 57.2543C364.705 57.2543 364.798 57.3572 364.736 57.563C364.674 57.7482 364.52 57.9231 364.273 58.0877C363.779 58.4169 363.327 58.5816 362.915 58.5816C362.524 58.5816 362.164 58.4169 361.835 58.0877C361.505 57.7379 361.3 57.3469 361.217 56.9147C361.135 56.4826 361.176 55.9373 361.341 55.2788C361.423 54.3734 361.464 53.7149 361.464 53.3033C361.485 52.8712 361.382 52.6551 361.156 52.6551C360.95 52.6551 360.59 52.7991 360.075 53.0872C359.561 53.3547 358.985 53.7251 358.347 54.1984C357.709 54.6717 357.081 55.1965 356.464 55.7727C355.846 56.3488 355.332 56.9456 354.92 57.563C354.673 57.8716 354.437 58.1494 354.21 58.3964C353.984 58.6227 353.758 58.7462 353.531 58.7668ZM365.551 59.3224C365.469 59.1578 365.366 59.0343 365.243 58.952C365.119 58.8491 365.058 58.7565 365.058 58.6742C365.058 58.5919 365.047 58.5095 365.027 58.4272C365.027 58.3243 364.986 58.2317 364.903 58.1494C364.8 58.026 364.811 57.7482 364.934 57.316C365.058 56.8633 365.263 56.318 365.551 55.6801C365.84 55.0216 366.179 54.3322 366.57 53.612C366.735 53.4473 366.899 53.2313 367.064 52.9638C367.229 52.6962 367.352 52.5213 367.434 52.439C367.434 52.3567 367.465 52.2847 367.527 52.2229C367.589 52.1406 367.661 52.0995 367.743 52.0995V51.9143C367.743 51.8114 367.836 51.6365 368.021 51.3895C368.227 51.1426 368.474 50.8751 368.762 50.587C369.05 50.2783 369.348 49.9902 369.657 49.7227C369.965 49.4346 370.223 49.2288 370.428 49.1054C370.861 48.8173 371.303 48.6424 371.756 48.5806C372.229 48.5189 372.63 48.6218 372.96 48.8893C373.021 48.951 373.124 49.0539 373.268 49.198C373.412 49.342 373.577 49.5066 373.762 49.6918C373.968 49.8565 374.174 50.0314 374.379 50.2166L375.522 51.2352L374.966 52.7785C374.698 53.6017 374.626 54.3219 374.75 54.9392C374.894 55.5566 375.1 56.0916 375.367 56.5443C375.47 56.7707 375.676 56.9868 375.985 57.1925C376.314 57.3983 376.622 57.5218 376.911 57.563C377.075 57.5835 377.23 57.6453 377.374 57.7482C377.518 57.851 377.59 58.0157 377.59 58.242C377.59 58.4478 377.548 58.6124 377.466 58.7359C377.384 58.8594 377.24 58.9417 377.034 58.9828C376.355 59.0652 375.717 58.9005 375.12 58.489C374.544 58.0774 374.009 57.3983 373.515 56.4517C373.433 56.3283 373.32 56.1019 373.176 55.7727C373.052 55.4228 372.98 55.1965 372.96 55.0936C372.877 55.1965 372.723 55.392 372.497 55.6801C372.27 55.9476 372.095 56.1431 371.972 56.2665C370.511 57.7482 369.245 58.7462 368.175 59.2606C367.126 59.7545 366.251 59.7751 365.551 59.3224ZM366.663 57.5938C366.663 57.7379 366.879 57.7379 367.311 57.5938C367.764 57.4292 368.247 57.1411 368.762 56.7295C369.461 56.1328 370.161 55.4743 370.861 54.754C371.581 54.0338 372.157 53.365 372.589 52.7477L373.268 51.6365C373.062 51.1632 372.836 50.8442 372.589 50.6796C372.363 50.4944 372.167 50.4018 372.003 50.4018C371.735 50.4018 371.334 50.6487 370.799 51.1426C370.284 51.6365 369.729 52.295 369.132 53.1181C368.535 53.9412 367.969 54.8466 367.434 55.8344C367.229 56.246 367.043 56.6472 366.879 57.0382C366.735 57.4086 366.663 57.5938 366.663 57.5938ZM386.975 60.0632C386.77 60.0632 386.554 59.95 386.327 59.7237C386.121 59.4973 385.936 59.2195 385.772 58.8902C385.627 58.5404 385.555 58.2112 385.555 57.9025C385.555 57.5938 385.627 57.0176 385.772 56.1739C385.936 55.3302 386.132 54.4762 386.358 53.612C386.523 53.0769 386.574 52.7683 386.512 52.6859C386.451 52.6036 386.173 52.7168 385.679 53.0255C385.391 53.1695 385.134 53.3239 384.907 53.4885C384.681 53.6325 384.485 53.7972 384.321 53.9824C384.218 54.0647 384.064 54.1984 383.858 54.3836C383.652 54.5688 383.436 54.7438 383.21 54.9084C382.942 55.1142 382.603 55.4023 382.191 55.7727C381.779 56.1431 381.368 56.5135 380.956 56.8839C380.565 57.2543 380.267 57.5424 380.061 57.7482C380.02 57.8305 379.958 57.9025 379.876 57.9642C379.794 58.026 379.701 58.0671 379.598 58.0877C379.495 58.0877 379.382 58.0671 379.259 58.026C379.032 57.9642 378.816 57.8305 378.61 57.6247C378.425 57.4189 378.333 57.1823 378.333 56.9147C378.333 56.709 378.415 56.3591 378.579 55.8653C378.744 55.3508 378.96 54.7335 379.228 54.0132C379.516 53.293 379.845 52.5316 380.215 51.7291C380.277 51.6262 380.329 51.5027 380.37 51.3587C380.411 51.194 380.442 51.0191 380.462 50.8339C380.504 50.6487 380.524 50.4738 380.524 50.3092C380.524 50.2063 380.534 50.1034 380.555 50.0005C380.596 49.877 380.637 49.7639 380.678 49.661C380.74 49.5375 380.792 49.4552 380.833 49.414C380.915 49.2494 381.059 49.2083 381.265 49.2906C381.471 49.3523 381.646 49.4963 381.79 49.7227C382.098 50.0108 382.253 50.3709 382.253 50.8031C382.273 51.2352 382.17 51.7702 381.944 52.4081C381.862 52.5522 381.79 52.6962 381.728 52.8403C381.687 52.9638 381.646 53.0769 381.604 53.1798C381.563 53.2621 381.532 53.3342 381.512 53.3959C381.491 53.437 381.481 53.4576 381.481 53.4576C381.563 53.4576 381.749 53.365 382.037 53.1798C382.325 52.9946 382.664 52.7888 383.055 52.5625C383.364 52.3361 383.631 52.1303 383.858 51.9451C384.105 51.7394 384.31 51.585 384.475 51.4821C384.64 51.3587 384.743 51.2969 384.784 51.2969C384.866 51.2969 384.969 51.2661 385.092 51.2043C385.216 51.1426 385.319 51.0706 385.401 50.9883C385.483 50.9059 385.545 50.8648 385.586 50.8648C385.648 50.8442 385.679 50.8339 385.679 50.8339C385.679 50.8339 385.72 50.8339 385.802 50.8339C385.885 50.8133 385.967 50.7619 386.049 50.6796C386.214 50.5561 386.43 50.5253 386.698 50.587C386.965 50.6281 387.212 50.731 387.438 50.8957C387.665 51.0603 387.778 51.2455 387.778 51.4513C387.778 51.5336 387.798 51.6056 387.84 51.6673C387.901 51.7085 387.932 51.7291 387.932 51.7291C388.097 51.7291 388.2 51.9863 388.241 52.5007C388.303 53.0152 388.251 53.5091 388.087 53.9824C388.087 54.291 388.025 54.6614 387.901 55.0936C387.798 55.5257 387.706 55.9373 387.624 56.3283C387.459 56.8427 387.346 57.2954 387.284 57.6864C387.222 58.0774 387.212 58.4067 387.253 58.6742C387.294 58.9417 387.366 59.1578 387.469 59.3224C387.552 59.4664 387.552 59.631 387.469 59.8163C387.387 59.9809 387.222 60.0632 386.975 60.0632ZM393.696 66.3292C393.305 66.4938 392.873 66.5453 392.4 66.4835C391.947 66.4424 391.495 66.3086 391.042 66.0823C390.61 65.8559 390.219 65.5781 389.869 65.2489C389.725 65.1048 389.57 64.8785 389.406 64.5698C389.262 64.2817 389.149 64.0039 389.066 63.7364C389.005 63.4689 389.015 63.3145 389.097 63.2734C389.179 63.2116 389.293 63.1911 389.437 63.2116C389.581 63.2322 389.715 63.2631 389.838 63.3042C389.982 63.366 390.054 63.438 390.054 63.5203C390.178 63.6232 390.394 63.7775 390.702 63.9833C391.011 64.2097 391.248 64.3434 391.412 64.3846C391.844 64.5286 392.163 64.5904 392.369 64.5698C392.575 64.5492 392.76 64.4772 392.925 64.3537C393.254 64.0656 393.511 63.7158 393.696 63.3042C393.882 62.8927 394.077 62.3268 394.283 61.6065L394.375 61.2053C394.54 60.4439 394.725 59.631 394.931 58.7668C395.137 57.9025 395.312 57.2234 395.456 56.7295C395.559 56.2562 395.59 55.9373 395.548 55.7727C395.528 55.608 395.435 55.6389 395.271 55.8653C395.188 55.8858 395.075 55.927 394.931 55.9887C394.808 56.0505 394.664 56.1225 394.499 56.2048C394.252 56.3283 394.005 56.4517 393.758 56.5752C393.511 56.6781 393.305 56.7501 393.141 56.7913C392.976 56.7913 392.822 56.8016 392.678 56.8221C392.534 56.8221 392.462 56.8221 392.462 56.8221C392.297 56.925 391.999 56.9147 391.567 56.7913C391.155 56.6472 390.785 56.4414 390.455 56.1739C390.27 55.927 390.136 55.7418 390.054 55.6183C389.972 55.4743 389.92 55.3302 389.9 55.1862C389.879 55.0216 389.869 54.7746 389.869 54.4454C389.848 54.1161 390.003 53.6428 390.332 53.0255C390.682 52.3876 391.104 51.7908 391.597 51.2352C391.988 50.8442 392.493 50.4429 393.11 50.0314C393.727 49.6198 394.345 49.2803 394.962 49.0128C395.6 48.7452 396.125 48.6218 396.536 48.6424C396.742 48.6629 396.937 48.6938 397.123 48.735C397.308 48.7555 397.514 48.8481 397.74 49.0128C398.028 49.1568 398.234 49.3111 398.357 49.4758C398.481 49.6404 398.645 49.9594 398.851 50.4326C398.975 50.7619 399.067 51.0911 399.129 51.4204C399.191 51.7291 399.222 52.0275 399.222 52.3155C399.222 52.6242 399.18 52.902 399.098 53.149C399.016 53.3959 398.903 53.5914 398.759 53.7354C398.717 53.7354 398.666 53.7457 398.604 53.7663C398.563 53.7663 398.522 53.7766 398.481 53.7972C398.357 53.8383 398.254 53.8589 398.172 53.8589C398.11 53.8589 398.038 53.9309 397.956 54.075C397.874 54.1984 397.812 54.3631 397.771 54.5688C397.75 54.6923 397.719 54.8158 397.678 54.9392C397.658 55.0627 397.627 55.1759 397.586 55.2788C397.544 55.3817 397.503 55.4743 397.462 55.5566C397.442 55.6183 397.431 55.6698 397.431 55.7109C397.431 55.7727 397.421 55.8241 397.4 55.8653C397.38 55.9064 397.349 55.9579 397.308 56.0196C397.246 56.1225 397.184 56.2562 397.123 56.4209C397.081 56.5649 397.061 56.7193 397.061 56.8839L396.937 57.2234C396.876 57.4292 396.814 57.6144 396.752 57.779C396.711 57.9436 396.69 58.0465 396.69 58.0877L396.567 58.705C396.526 58.8491 396.474 58.9828 396.413 59.1063C396.372 59.2092 396.33 59.3738 396.289 59.6002C396.248 59.806 396.197 60.1455 396.135 60.6188C395.723 62.3885 395.312 63.7158 394.9 64.6007C394.489 65.5061 394.087 66.0823 393.696 66.3292ZM391.567 55.1245C392.102 55.3302 392.657 55.3508 393.233 55.1862C393.81 55.0216 394.468 54.6512 395.209 54.075C395.682 53.7251 396.073 53.3239 396.382 52.8712C396.711 52.3979 396.948 51.9143 397.092 51.4204C397.195 51.1117 397.226 50.8957 397.184 50.7722C397.143 50.6281 397.009 50.5458 396.783 50.5253C396.433 50.4429 395.991 50.5047 395.456 50.7105C394.921 50.8957 394.375 51.1632 393.82 51.513C393.717 51.657 393.593 51.7908 393.449 51.9143C393.305 52.0377 393.172 52.1406 393.048 52.2229C392.945 52.2847 392.894 52.3155 392.894 52.3155C392.873 52.3567 392.842 52.4081 392.801 52.4699C392.781 52.5316 392.729 52.5831 392.647 52.6242C392.441 52.8094 392.235 53.0872 392.03 53.4576C391.824 53.828 391.669 54.1779 391.567 54.5071C391.484 54.8364 391.484 55.0421 391.567 55.1245ZM402.432 60.5262C401.527 60.5262 400.786 60.1867 400.21 59.5076C399.634 58.8079 399.356 57.9436 399.376 56.9147C399.418 56.1739 399.562 55.3817 399.809 54.538C400.076 53.6737 400.426 52.8506 400.858 52.0686C401.29 51.2661 401.763 50.5664 402.278 49.9696C402.792 49.3729 403.327 48.951 403.883 48.7041C404.089 48.6012 404.305 48.5189 404.531 48.4572C404.778 48.3954 405.025 48.3646 405.272 48.3646C405.498 48.3646 405.735 48.4057 405.982 48.488C406.229 48.5498 406.435 48.6218 406.599 48.7041C406.949 48.8481 407.217 49.0231 407.402 49.2288C407.587 49.4346 407.752 49.7536 407.896 50.1857C407.957 50.5767 407.988 50.8545 407.988 51.0191C407.988 51.1837 407.937 51.4307 407.834 51.7599C407.587 52.5007 407.268 53.1387 406.877 53.6737C406.486 54.2087 405.961 54.6614 405.303 55.0318C405.138 55.1347 404.943 55.2171 404.716 55.2788C404.511 55.3199 404.295 55.3405 404.068 55.3405C403.657 55.3405 403.255 55.2685 402.864 55.1245C402.494 54.9598 402.196 54.7232 401.969 54.4145L401.753 54.1676L401.661 54.4145C401.455 54.9701 401.29 55.4846 401.167 55.9579C401.064 56.4312 401.012 56.8633 401.012 57.2543C401.012 57.5012 401.033 57.7379 401.074 57.9642C401.136 58.1906 401.218 58.3861 401.321 58.5507C401.403 58.6742 401.537 58.7668 401.722 58.8285C401.928 58.8697 402.144 58.8902 402.37 58.8902C402.515 58.8902 402.659 58.8902 402.803 58.8902C402.967 58.8697 403.122 58.8285 403.266 58.7668C403.615 58.6433 403.893 58.5095 404.099 58.3655C404.325 58.2215 404.552 58.0671 404.778 57.9025L404.902 57.8408H404.871C405.118 57.7173 405.334 57.5938 405.519 57.4704C405.725 57.3469 405.828 57.2851 405.828 57.2851C405.91 57.2851 405.992 57.2337 406.075 57.1308C406.239 57.0485 406.445 57.0794 406.692 57.2234C406.959 57.3675 407.093 57.5527 407.093 57.779C407.073 57.8819 406.98 58.0465 406.815 58.2729C406.651 58.4787 406.466 58.6742 406.26 58.8594C406.075 59.0446 405.92 59.1475 405.797 59.168C405.776 59.1886 405.704 59.2298 405.581 59.2915C405.457 59.3327 405.375 59.3738 405.334 59.415H405.365C405.179 59.6619 404.994 59.7854 404.809 59.7854H404.562C404.48 59.9294 404.212 60.0941 403.759 60.2793C403.307 60.4439 402.864 60.5262 402.432 60.5262ZM403.821 53.7354C404.192 53.7354 404.511 53.6325 404.778 53.4268C405.066 53.2004 405.313 52.9535 405.519 52.6859C405.93 52.1303 406.167 51.5953 406.229 51.0809C406.311 50.5458 406.249 50.1754 406.044 49.9696C405.92 49.9079 405.807 49.877 405.704 49.877C405.622 49.8565 405.447 49.8873 405.179 49.9696C404.994 50.0108 404.737 50.1651 404.408 50.4326C404.078 50.7002 403.749 50.9985 403.42 51.3278C403.111 51.657 402.875 51.9348 402.71 52.1612L402.309 52.8094C402.473 52.7477 402.628 52.7168 402.772 52.7168C402.936 52.6962 403.029 52.7065 403.05 52.7477C403.05 52.9329 403.08 53.1078 403.142 53.2724C403.224 53.4165 403.317 53.5296 403.42 53.612C403.543 53.6943 403.677 53.7354 403.821 53.7354ZM416.615 60.2175C416.388 60.1764 416.152 60.0632 415.905 59.878C415.679 59.6722 415.473 59.4458 415.288 59.1989C415.123 58.9314 415.01 58.6947 414.948 58.489C414.948 58.4478 414.917 58.3964 414.855 58.3346C414.814 58.2729 414.794 58.242 414.794 58.242C414.711 58.1803 414.66 57.9128 414.639 57.4395C414.639 56.9456 414.67 56.4003 414.732 55.8035C414.794 55.2068 414.866 54.7335 414.948 54.3836C415.051 54.0544 415.205 53.612 415.411 53.0564C415.617 52.4802 415.792 51.9657 415.936 51.513L416.769 49.7227L415.534 49.3832C415.39 49.342 415.267 49.2597 415.164 49.1362C415.082 49.0128 415.041 48.9099 415.041 48.8276C415.041 48.6629 415.133 48.4674 415.318 48.2411C415.504 47.9941 415.637 47.8707 415.72 47.8707C415.823 47.8913 416.008 47.9015 416.275 47.9015C416.563 47.9015 416.841 47.8913 417.109 47.8707C417.376 47.8501 417.541 47.8295 417.603 47.8089C417.685 47.7678 417.767 47.7163 417.85 47.6546C417.932 47.5723 417.994 47.4591 418.035 47.3151C418.138 47.0887 418.23 46.8829 418.313 46.6977C418.395 46.4919 418.508 46.2656 418.652 46.0187C418.796 45.7511 418.909 45.5248 418.992 45.3396C419.094 45.1544 419.249 44.8971 419.455 44.5679C419.558 44.4239 419.671 44.2489 419.794 44.0432C419.918 43.8374 420.072 43.6625 420.257 43.5184C420.442 43.3538 420.628 43.2818 420.813 43.3023C421.019 43.3023 421.276 43.4361 421.584 43.7036C421.749 43.9094 421.842 44.0637 421.862 44.1666C421.883 44.2695 421.801 44.465 421.615 44.7531C421.451 45.1029 421.255 45.4528 421.029 45.8026C420.823 46.1524 420.628 46.5022 420.442 46.8521C420.113 47.3048 420.051 47.562 420.257 47.6237C420.463 47.6855 421.039 47.6443 421.986 47.5003C422.582 47.3974 423.015 47.4283 423.282 47.5929C423.55 47.7369 423.704 47.9839 423.745 48.3337C423.807 48.8276 423.755 49.1259 423.591 49.2288C423.426 49.3317 422.953 49.3832 422.171 49.3832C421.677 49.4655 421.255 49.5169 420.905 49.5375C420.556 49.5375 420.298 49.5375 420.134 49.5375C419.866 49.5581 419.691 49.5684 419.609 49.5684C419.527 49.5684 419.403 49.5889 419.239 49.6301C419.074 49.6713 418.95 49.7433 418.868 49.8462C418.806 49.9285 418.734 50.052 418.652 50.2166C418.57 50.2989 418.446 50.515 418.282 50.8648C418.117 51.2146 417.911 51.5953 417.664 52.0069C417.376 52.8712 417.129 53.7354 416.924 54.5997C416.718 55.4434 416.553 56.2665 416.43 57.0691C416.347 57.5835 416.358 57.9436 416.461 58.1494C416.563 58.3346 416.831 58.4478 417.263 58.489C417.489 58.5095 417.85 58.5095 418.343 58.489C418.858 58.4478 419.259 58.3861 419.547 58.3038C419.774 58.2009 420.01 58.098 420.257 57.9951C420.504 57.8716 420.73 57.7482 420.936 57.6247C421.121 57.5218 421.307 57.4189 421.492 57.316C421.677 57.1925 421.77 57.1308 421.77 57.1308C421.873 56.9662 421.986 56.9147 422.109 56.9765C422.233 57.0382 422.336 57.1925 422.418 57.4395C422.418 57.6864 422.366 57.9436 422.264 58.2112C422.161 58.4787 421.78 58.7976 421.121 59.168C420.195 59.7442 419.341 60.0941 418.559 60.2175C417.798 60.3204 417.15 60.3204 416.615 60.2175ZM432.715 59.4767C432.201 59.7237 431.738 59.7957 431.326 59.6928C430.915 59.5693 430.585 59.2915 430.338 58.8594C430.112 58.4272 429.999 57.8819 429.999 57.2234C429.999 56.9971 430.03 56.6575 430.091 56.2048C430.174 55.7521 430.266 55.2788 430.369 54.7849C430.472 54.2705 430.585 53.828 430.709 53.4576C430.77 53.2724 430.812 53.1284 430.832 53.0255C430.873 52.9226 430.853 52.8712 430.77 52.8712C430.688 52.8712 430.585 52.9226 430.462 53.0255C430.359 53.1284 430.277 53.2107 430.215 53.2724C429.762 53.6428 429.289 54.0955 428.795 54.6306C428.322 55.1656 427.879 55.7109 427.468 56.2665C427.056 56.8016 426.717 57.2954 426.449 57.7482C426.202 58.2009 426.079 58.5301 426.079 58.7359C426.079 59.0446 425.924 59.2606 425.616 59.3841C425.307 59.5076 425.04 59.4973 424.813 59.3532C424.422 59.1269 424.175 58.8594 424.072 58.5507C423.99 58.2215 423.98 57.6761 424.041 56.9147C424.103 55.9476 424.186 55.0833 424.288 54.3219C424.391 53.5605 424.556 52.7374 424.782 51.8525C425.029 50.9471 425.348 49.8462 425.739 48.5498C426.007 47.8295 426.254 47.1504 426.48 46.5125C426.706 45.854 426.902 45.2984 427.066 44.8457C427.252 44.393 427.365 44.1152 427.406 44.0123C427.509 43.9094 427.643 43.6625 427.807 43.2715C427.972 42.8599 428.116 42.4484 428.239 42.0368C428.383 41.6252 428.455 41.3783 428.455 41.296C428.455 41.1314 428.486 40.9873 428.548 40.8638C428.61 40.7198 428.682 40.6066 428.764 40.5243C428.846 40.442 428.918 40.37 428.98 40.3082C429.042 40.2465 429.073 40.2156 429.073 40.2156C429.176 40.2156 429.299 40.2465 429.443 40.3082C429.608 40.37 429.762 40.4626 429.906 40.586C430.05 40.6889 430.143 40.8227 430.184 40.9873C430.328 41.2754 430.4 41.5738 430.4 41.8825C430.4 42.1706 430.307 42.5307 430.122 42.9628C429.958 43.3949 429.67 43.9917 429.258 44.7531C428.929 45.391 428.63 46.0495 428.363 46.7286C428.095 47.4077 427.838 48.1176 427.591 48.8584C427.488 49.1671 427.344 49.5992 427.159 50.1548C426.994 50.7105 426.82 51.2866 426.634 51.8834C426.47 52.4802 426.326 53.0152 426.202 53.4885C426.099 53.9412 426.048 54.2293 426.048 54.3528C426.048 54.4968 426.13 54.5688 426.295 54.5688C426.459 54.5483 426.624 54.4248 426.789 54.1984C426.871 54.0338 427.046 53.828 427.313 53.5811C427.581 53.3342 427.797 53.1387 427.962 52.9946C428.126 52.8506 428.353 52.6448 428.641 52.3773C428.929 52.1098 429.237 51.8422 429.567 51.5747C429.896 51.2866 430.205 51.05 430.493 50.8648C430.781 50.659 431.007 50.5561 431.172 50.5561C431.439 50.5561 431.686 50.659 431.913 50.8648C432.139 51.05 432.293 51.2558 432.376 51.4821C432.437 51.5439 432.499 51.6262 432.561 51.7291C432.623 51.8114 432.664 51.8731 432.684 51.9143C432.787 51.9966 432.787 52.3567 432.684 52.9946C432.602 53.612 432.396 54.4145 432.067 55.4023C431.882 56.1636 431.727 56.8119 431.604 57.3469C431.501 57.8613 431.532 58.1186 431.697 58.1186C431.697 58.1186 431.799 58.0568 432.005 57.9334C432.232 57.8099 432.468 57.6761 432.715 57.5321C433.312 57.1411 433.826 56.9147 434.258 56.853C434.711 56.7707 434.938 56.8427 434.938 57.0691C434.938 57.1514 434.907 57.2337 434.845 57.316C434.783 57.3777 434.752 57.4498 434.752 57.5321C434.752 57.5321 434.752 57.5424 434.752 57.563C434.752 57.563 434.752 57.6041 434.752 57.6864C434.752 57.7276 434.619 57.8922 434.351 58.1803C434.084 58.4478 433.785 58.7256 433.456 59.0137C433.147 59.2812 432.9 59.4356 432.715 59.4767ZM437.766 59.6928C436.964 59.3635 436.439 58.9108 436.192 58.3346C435.966 57.7379 435.925 56.8221 436.069 55.5875C436.11 54.9495 436.13 54.5277 436.13 54.3219C436.13 54.1161 436.017 53.9103 435.791 53.7046C435.729 53.6223 435.616 53.5091 435.451 53.365C435.307 53.221 435.246 53.0975 435.266 52.9946C435.246 52.8506 435.256 52.6962 435.297 52.5316C435.338 52.3464 435.4 52.2538 435.482 52.2538C435.565 52.2538 435.647 52.2332 435.729 52.1921C435.832 52.1509 435.925 52.1509 436.007 52.1921C436.089 52.1921 436.182 52.2024 436.285 52.2229C436.388 52.2435 436.439 52.295 436.439 52.3773C436.521 52.5213 436.655 52.5419 436.84 52.439C437.026 52.3155 437.221 52.048 437.427 51.6365C437.633 51.3072 437.9 50.978 438.229 50.6487C438.579 50.3195 438.919 50.0211 439.248 49.7536C439.598 49.4655 439.886 49.2597 440.112 49.1362C440.215 49.0951 440.37 49.0436 440.575 48.9819C440.781 48.9202 440.997 48.8687 441.224 48.8276C441.47 48.7864 441.676 48.7761 441.841 48.7967C442.211 48.8173 442.52 48.9202 442.767 49.1054C443.034 49.2906 443.281 49.5066 443.508 49.7536C443.775 49.9388 443.94 50.1857 444.002 50.4944C444.084 50.8031 444.104 51.1323 444.063 51.4821C444.022 51.832 443.93 52.1509 443.786 52.439C443.724 52.6448 443.549 52.8917 443.261 53.1798C442.973 53.4679 442.643 53.7457 442.273 54.0132C441.903 54.2807 441.563 54.4762 441.254 54.5997C440.987 54.6614 440.637 54.7129 440.205 54.754C439.793 54.7952 439.402 54.8158 439.032 54.8158C438.682 54.7952 438.446 54.754 438.322 54.6923C438.178 54.61 438.065 54.7232 437.983 55.0318C437.9 55.3405 437.838 55.7829 437.797 56.3591C437.756 56.8119 437.756 57.1411 437.797 57.3469C437.838 57.5527 437.88 57.6967 437.921 57.779C438.065 57.9231 438.26 58.1083 438.507 58.3346C438.775 58.5404 439.145 58.5713 439.618 58.4272C440.009 58.3243 440.39 58.0568 440.761 57.6247C441.152 57.1925 441.512 56.8427 441.841 56.5752C441.923 56.4312 442.057 56.3488 442.242 56.3283C442.448 56.2871 442.664 56.2974 442.89 56.3591C443.117 56.5032 443.209 56.6781 443.168 56.8839C443.148 57.0691 443.045 57.3572 442.86 57.7482C442.798 57.8922 442.654 58.0774 442.427 58.3038C442.222 58.5095 441.985 58.7256 441.717 58.952C441.47 59.1578 441.244 59.3224 441.038 59.4458C440.421 59.7751 439.845 59.95 439.31 59.9706C438.775 59.9706 438.26 59.878 437.766 59.6928ZM439.588 53.4268C440.04 53.3239 440.4 53.2518 440.668 53.2107C440.935 53.1695 441.193 53.0564 441.44 52.8712C441.687 52.6654 441.995 52.2847 442.366 51.7291C442.448 51.5027 442.469 51.2764 442.427 51.05C442.407 50.8236 442.355 50.6693 442.273 50.587C442.088 50.3812 441.861 50.3195 441.594 50.4018C441.347 50.4635 441.11 50.5767 440.884 50.7413C440.74 50.8031 440.524 50.9574 440.236 51.2043C439.968 51.4307 439.701 51.6982 439.433 52.0069C439.166 52.295 438.95 52.5625 438.785 52.8094C438.62 53.0564 438.579 53.2004 438.662 53.2416C438.62 53.3239 438.734 53.3753 439.001 53.3959C439.289 53.4165 439.485 53.4268 439.588 53.4268ZM451.856 58.8594C451.856 58.6947 451.836 58.5404 451.795 58.3964C451.754 58.2523 451.774 58.1391 451.856 58.0568L452.103 58.1186C452.021 58.1391 451.898 58.1494 451.733 58.1494C451.568 58.1288 451.414 58.098 451.27 58.0568C451.147 57.9951 451.074 57.9436 451.054 57.9025C451.074 57.5527 451.095 57.2851 451.116 57.0999C451.157 56.9147 451.208 56.7604 451.27 56.6369C451.27 56.4517 451.332 56.2151 451.455 55.927C451.579 55.6389 451.682 55.3405 451.764 55.0318C451.846 54.682 451.949 54.1573 452.073 53.4576C452.217 52.758 452.422 52.0892 452.69 51.4513C452.854 50.9162 453.06 50.2474 453.307 49.4449C453.554 48.6218 453.791 47.9427 454.017 47.4077C454.264 46.4611 454.49 45.6997 454.696 45.1235C454.923 44.5267 455.149 43.9917 455.375 43.5184C455.622 43.0245 455.89 42.4689 456.178 41.8516C456.26 41.687 456.342 41.4812 456.425 41.2342C456.507 40.9667 456.579 40.7404 456.641 40.5552C456.682 40.3905 456.836 40.2774 457.104 40.2156C457.392 40.1333 457.659 40.2156 457.906 40.4626C458.133 40.6889 458.256 40.8844 458.277 41.049C458.297 41.2137 458.225 41.4915 458.061 41.8825C457.917 42.2529 457.67 42.8702 457.32 43.7345C457.176 43.9403 457.011 44.2901 456.826 44.784C456.661 45.2573 456.507 45.6791 456.363 46.0495C456.054 46.7698 455.807 47.3871 455.622 47.9015C455.437 48.416 455.262 48.9407 455.098 49.4758C454.953 50.052 454.779 50.7002 454.573 51.4204C454.388 52.1406 454.192 52.8197 453.986 53.4576L453.492 53.612C453.636 53.4268 453.811 53.2107 454.017 52.9638C454.244 52.7168 454.449 52.4905 454.635 52.2847C454.84 52.0789 454.974 51.9451 455.036 51.8834C455.591 51.4101 456.209 50.978 456.888 50.587C457.567 50.1754 458.205 49.8668 458.802 49.661C459.419 49.4552 459.882 49.414 460.191 49.5375C460.438 49.6198 460.746 49.8359 461.117 50.1857C461.487 50.5355 461.703 50.8648 461.765 51.1735C461.929 51.5027 461.96 51.8937 461.857 52.3464C461.755 52.7785 461.508 53.3547 461.117 54.075C460.767 54.7129 460.365 55.3302 459.913 55.927C459.46 56.5032 459.028 56.9868 458.616 57.3777C458.472 57.4601 458.287 57.6041 458.061 57.8099C457.855 57.9951 457.67 58.1803 457.505 58.3655C457.073 58.7565 456.559 59.0652 455.962 59.2915C455.386 59.5179 454.809 59.6619 454.233 59.7237C453.657 59.7648 453.153 59.7134 452.721 59.5693C452.289 59.4253 452.001 59.1886 451.856 58.8594ZM452.319 58.026C452.422 58.0465 452.525 58.0671 452.628 58.0877C452.731 58.0877 452.844 58.0877 452.968 58.0877C453.42 58.026 453.801 57.9642 454.11 57.9025C454.439 57.8202 454.758 57.7173 455.067 57.5938C455.375 57.4498 455.715 57.2646 456.085 57.0382C456.62 56.6266 457.104 56.2254 457.536 55.8344C457.989 55.4228 458.411 54.9701 458.802 54.4762C459.151 54.0235 459.46 53.4885 459.728 52.8712C460.016 52.2538 460.16 51.7702 460.16 51.4204C460.16 51.2352 460.108 51.1426 460.005 51.1426C459.964 51.1426 459.779 51.2043 459.45 51.3278C459.121 51.4307 458.781 51.5644 458.431 51.7291C458.102 51.8731 457.886 51.9966 457.783 52.0995C457.783 52.1818 457.721 52.2538 457.598 52.3155C457.474 52.3567 457.413 52.3773 457.413 52.3773C456.775 52.8506 456.27 53.2621 455.9 53.612C455.53 53.9412 455.221 54.2602 454.974 54.5688C454.83 54.7746 454.707 54.9495 454.604 55.0936C454.501 55.2171 454.398 55.3508 454.295 55.4949C454.213 55.6389 454.089 55.8241 453.925 56.0505C453.781 56.2768 453.585 56.5855 453.338 56.9765C453.194 57.244 453.009 57.5012 452.782 57.7482C452.577 57.9951 452.422 58.1391 452.319 58.1803V58.026ZM462.91 59.3532C462.725 59.2092 462.592 59.0652 462.509 58.9211C462.447 58.7771 462.447 58.4993 462.509 58.0877C462.571 57.5115 462.653 57.0073 462.756 56.5752C462.859 56.1225 462.982 55.608 463.127 55.0318C463.168 54.7849 463.281 54.3631 463.466 53.7663C463.672 53.1695 463.919 52.5213 464.207 51.8217C464.495 51.122 464.783 50.4635 465.071 49.8462C465.359 49.2083 465.606 48.735 465.812 48.4263C465.977 48.3028 466.172 48.2514 466.398 48.272C466.645 48.2925 466.851 48.3851 467.016 48.5498C467.242 48.735 467.273 49.0642 467.108 49.5375C466.964 49.9902 466.656 50.7105 466.182 51.6982C465.935 52.2538 465.75 52.6757 465.627 52.9638C465.503 53.2313 465.452 53.3959 465.472 53.4576C465.493 53.4988 465.586 53.4679 465.75 53.365C465.874 53.1387 466.1 52.8814 466.429 52.5933C466.759 52.2847 467.108 51.9863 467.479 51.6982C467.849 51.4101 468.199 51.1529 468.528 50.9265C468.858 50.7002 469.084 50.5561 469.207 50.4944C469.372 50.3915 469.557 50.3092 469.763 50.2474C469.989 50.1651 470.144 50.1034 470.226 50.0622C470.699 49.8359 471.183 49.7536 471.677 49.8153C472.171 49.877 472.479 50.0622 472.603 50.3709C472.623 50.5355 472.685 50.659 472.788 50.7413C472.911 50.8236 472.973 50.8648 472.973 50.8648C473.055 50.8648 473.097 50.8957 473.097 50.9574C473.117 51.0191 473.127 51.05 473.127 51.05C473.127 51.194 473.014 51.2866 472.788 51.3278C472.582 51.3484 472.315 51.369 471.985 51.3895C471.718 51.4101 471.481 51.4616 471.275 51.5439C471.07 51.6262 470.823 51.7291 470.535 51.8525C469.753 52.3053 469.002 52.7477 468.281 53.1798C467.582 53.612 466.903 54.1881 466.244 54.9084C466.1 55.073 465.956 55.2685 465.812 55.4949C465.668 55.7212 465.514 55.9682 465.349 56.2357C465.246 56.3386 465.143 56.5649 465.04 56.9147C464.937 57.2646 464.845 57.6041 464.762 57.9334C464.701 58.242 464.67 58.4272 464.67 58.489C464.67 58.489 464.639 58.5919 464.577 58.7976C464.516 58.9828 464.413 59.168 464.269 59.3532C464.022 59.6825 463.816 59.8471 463.651 59.8471C463.487 59.8471 463.24 59.6825 462.91 59.3532ZM472.534 59.4458C472.37 59.2812 472.246 59.0754 472.164 58.8285C472.102 58.5816 472.081 58.3346 472.102 58.0877C472.123 57.8408 472.174 57.635 472.256 57.4704C472.256 57.3057 472.277 57.1823 472.318 57.0999C472.38 56.9971 472.4 56.9045 472.38 56.8221C472.359 56.7398 472.38 56.5958 472.442 56.39C472.503 56.1842 472.565 55.9887 472.627 55.8035C472.771 55.4743 472.925 55.0833 473.09 54.6306C473.254 54.1573 473.409 53.6943 473.553 53.2416C473.697 52.7888 473.82 52.3979 473.923 52.0686C474.026 51.7394 474.088 51.5336 474.108 51.4513C474.108 51.2043 474.273 51.0706 474.602 51.05C474.849 50.9677 475.034 50.9677 475.158 51.05C475.281 51.1117 475.446 51.3072 475.652 51.6365C475.816 51.8011 475.878 52.048 475.837 52.3773C475.796 52.7065 475.662 53.1181 475.436 53.612C475.353 53.7766 475.251 54.0132 475.127 54.3219C475.024 54.6306 474.952 54.9084 474.911 55.1553C474.829 55.3199 474.726 55.5566 474.602 55.8653C474.499 56.1534 474.407 56.4312 474.324 56.6987C474.283 56.8016 474.242 56.9559 474.201 57.1617C474.16 57.3469 474.108 57.5527 474.047 57.779C473.985 57.9848 473.903 58.17 473.8 58.3346C473.615 59.1783 473.44 59.6722 473.275 59.8163C473.131 59.9603 472.884 59.8368 472.534 59.4458ZM475.528 46.9138C475.425 46.8109 475.333 46.6669 475.251 46.4817C475.168 46.2759 475.117 46.0907 475.096 45.9261C475.076 45.7408 475.096 45.6482 475.158 45.6482C475.323 45.6277 475.518 45.4528 475.744 45.1235C475.971 44.7943 476.063 44.5062 476.022 44.2592C476.022 44.1769 476.053 44.1049 476.115 44.0432C476.177 43.9608 476.249 43.9094 476.331 43.8888C476.578 43.7242 476.814 43.7036 477.041 43.8271C477.288 43.93 477.514 44.146 477.72 44.4753C477.905 44.8663 477.957 45.1955 477.874 45.463C477.792 45.71 477.566 46.0598 477.195 46.5125C476.886 46.9241 476.598 47.1504 476.331 47.1916C476.084 47.2328 475.816 47.1402 475.528 46.9138ZM479.204 66.2366C478.977 66.2572 478.627 66.2057 478.154 66.0823C477.701 65.9588 477.362 65.8456 477.136 65.7427C476.868 65.537 476.6 65.2592 476.333 64.9093C476.065 64.5595 475.849 64.1994 475.685 63.829C475.541 63.4791 475.479 63.2116 475.5 63.0264C475.52 62.8618 475.674 62.8309 475.963 62.9338C476.271 63.0367 476.477 63.1705 476.58 63.3351C476.765 63.5615 476.981 63.7775 477.228 63.9833C477.475 64.1891 477.722 64.3434 477.969 64.4463C478.216 64.5698 478.411 64.6212 478.555 64.6007C479.07 64.5183 479.492 64.2611 479.821 63.829C480.171 63.4174 480.479 62.8927 480.747 62.2548C480.912 61.802 481.035 61.4213 481.117 61.1127C481.22 60.8246 481.313 60.4953 481.395 60.1249C481.498 59.7545 481.622 59.2401 481.766 58.5816C481.951 57.8408 482.074 57.316 482.136 57.0073C482.218 56.6781 482.259 56.462 482.259 56.3591C482.259 56.2562 482.229 56.1842 482.167 56.1431C482.167 56.1431 482.033 56.2151 481.766 56.3591C481.498 56.5032 481.2 56.6575 480.87 56.8221C480.562 56.9868 480.325 57.1205 480.161 57.2234C479.584 57.4086 479.018 57.5218 478.463 57.563C477.907 57.6041 477.475 57.5732 477.166 57.4704C477.022 57.4086 476.868 57.2646 476.703 57.0382C476.559 56.8119 476.436 56.5649 476.333 56.2974C476.251 56.0093 476.22 55.7624 476.24 55.5566C476.261 55.392 476.354 55.145 476.518 54.8158C476.683 54.4865 476.868 54.1367 477.074 53.7663C477.3 53.3959 477.496 53.0872 477.66 52.8403C477.845 52.5728 477.959 52.439 478 52.439C478.082 52.439 478.123 52.4081 478.123 52.3464C478.144 52.2847 478.154 52.2127 478.154 52.1303C478.175 52.048 478.329 51.8731 478.617 51.6056C478.926 51.3175 479.337 50.9677 479.852 50.5561C480.572 49.8976 481.22 49.3935 481.796 49.0436C482.373 48.6938 482.908 48.4983 483.402 48.4572C483.546 48.4777 483.679 48.488 483.803 48.488C483.947 48.488 484.019 48.488 484.019 48.488C484.019 48.488 484.081 48.5292 484.204 48.6115C484.348 48.6732 484.533 48.7555 484.76 48.8584C485.068 48.9819 485.346 49.198 485.593 49.5066C485.84 49.7947 486.036 50.1343 486.18 50.5253C486.344 50.8957 486.437 51.2661 486.457 51.6365C486.437 52.0892 486.334 52.5316 486.149 52.9638C485.984 53.3959 485.819 53.6017 485.655 53.5811C485.49 53.5605 485.284 53.6325 485.038 53.7972C484.811 53.9618 484.698 54.0853 484.698 54.1676C484.698 54.2499 484.667 54.3528 484.605 54.4762C484.564 54.5997 484.43 54.7952 484.204 55.0627C484.184 55.1656 484.122 55.4434 484.019 55.8961C483.937 56.3283 483.834 56.8221 483.71 57.3777C483.587 57.9334 483.474 58.4375 483.371 58.8902C483.288 59.3224 483.237 59.6002 483.216 59.7237C483.196 59.806 483.144 59.9912 483.062 60.2793C483 60.5468 482.908 60.8554 482.784 61.2053C482.681 61.5551 482.568 61.8843 482.445 62.193C482.362 62.7898 482.249 63.2322 482.105 63.5203C481.982 63.829 481.776 64.1582 481.488 64.5081C481.179 65.0225 480.809 65.4238 480.377 65.7119C479.944 66.0205 479.553 66.1955 479.204 66.2366ZM477.938 55.8653C477.979 56.071 478.257 56.1431 478.771 56.0813C479.286 55.999 479.8 55.8241 480.315 55.5566C480.768 55.3302 481.179 55.145 481.55 55.001C481.92 54.8569 482.177 54.6512 482.321 54.3836C482.445 54.1779 482.548 53.9721 482.63 53.7663C482.712 53.5605 482.815 53.2621 482.939 52.8712C482.959 52.7888 483.011 52.6962 483.093 52.5933C483.196 52.4699 483.288 52.3979 483.371 52.3773C483.453 52.3567 483.535 52.3567 483.618 52.3773C483.721 52.3979 483.844 52.439 483.988 52.5007C484.091 52.4596 484.163 52.3567 484.204 52.1921C484.266 52.0275 484.276 51.8422 484.235 51.6365C484.214 51.4924 484.111 51.2969 483.926 51.05C483.741 50.8031 483.504 50.6076 483.216 50.4635C482.908 50.2989 482.548 50.4018 482.136 50.7722C481.724 51.1426 481.22 51.5953 480.624 52.1303C480.15 52.5625 479.697 53.0152 479.265 53.4885C478.833 53.9618 478.483 54.4042 478.216 54.8158C477.969 55.2273 477.876 55.5772 477.938 55.8653ZM496.86 59.7545C496.469 59.8574 496.181 59.8986 495.996 59.878C495.811 59.8368 495.564 59.6619 495.255 59.3532C495.07 59.0652 494.905 58.8079 494.761 58.5816C494.617 58.3552 494.524 57.9539 494.483 57.3777C494.463 56.9868 494.483 56.5649 494.545 56.1122C494.627 55.6389 494.658 55.2994 494.638 55.0936C494.802 54.3322 494.864 53.7251 494.823 53.2724C494.802 52.7991 494.741 52.5625 494.638 52.5625C494.411 52.5213 494 52.7477 493.403 53.2416C492.827 53.7149 492.158 54.3425 491.397 55.1245C490.656 55.8858 489.915 56.6884 489.174 57.5321C488.783 58.0671 488.505 58.4684 488.341 58.7359C488.176 58.9828 488.053 59.1063 487.97 59.1063C487.826 59.1063 487.631 59.0549 487.384 58.952C487.137 58.8491 486.921 58.7256 486.736 58.5816C486.55 58.4169 486.448 58.2729 486.427 58.1494C486.427 58.0671 486.478 57.851 486.581 57.5012C486.684 57.1308 486.808 56.709 486.952 56.2357C487.116 55.7624 487.26 55.3199 487.384 54.9084C487.507 54.4968 487.6 54.2087 487.662 54.0441C487.847 53.5091 488.063 52.8609 488.31 52.0995C488.577 51.3175 488.814 50.6281 489.02 50.0314C489.102 49.7639 489.246 49.3832 489.452 48.8893C489.658 48.3748 489.864 47.8604 490.069 47.3459C490.275 46.8315 490.419 46.4508 490.501 46.2039C490.563 46.0392 490.676 45.7511 490.841 45.3396C491.006 44.9074 491.181 44.4341 491.366 43.9197C491.571 43.4052 491.757 42.9319 491.921 42.4998C492.107 42.0471 492.23 41.7178 492.292 41.5121C492.271 41.3269 492.281 41.1622 492.323 41.0182C492.384 40.8536 492.446 40.7301 492.508 40.6478C492.59 40.6478 492.683 40.6478 492.786 40.6478C492.888 40.6272 492.94 40.6169 492.94 40.6169C492.94 40.5758 493.022 40.6169 493.187 40.7404C493.351 40.8638 493.506 41.0182 493.65 41.2034C493.814 41.368 493.897 41.5121 493.897 41.6355C494 41.903 494.01 42.2529 493.928 42.685C493.845 43.0966 493.629 43.7242 493.279 44.5679C493.053 44.8971 492.827 45.391 492.6 46.0495C492.395 46.708 492.189 47.2636 491.983 47.7163C491.901 47.8604 491.746 48.1691 491.52 48.6424C491.314 49.1157 491.067 49.6713 490.779 50.3092C490.512 50.9471 490.254 51.5953 490.008 52.2538C489.761 52.8917 489.565 53.4679 489.421 53.9824C489.215 54.4762 489.143 54.8055 489.205 54.9701C489.267 55.1347 489.514 54.9495 489.946 54.4145C490.522 53.7972 491.129 53.1695 491.767 52.5316C492.405 51.8937 493.002 51.3587 493.557 50.9265C494.133 50.4738 494.596 50.268 494.946 50.3092C495.131 50.3503 495.327 50.4738 495.533 50.6796C495.759 50.8854 495.975 51.122 496.181 51.3895C496.387 51.657 496.531 51.9143 496.613 52.1612C496.695 52.4699 496.747 52.7374 496.767 52.9638C496.809 53.1901 496.819 53.5296 496.798 53.9824C496.778 54.4145 496.726 55.1039 496.644 56.0505C496.521 56.7501 496.438 57.2543 496.397 57.563C496.356 57.851 496.366 58.0568 496.428 58.1803C496.51 58.3038 496.634 58.4375 496.798 58.5816C497.107 58.8285 497.261 59.0446 497.261 59.2298C497.282 59.415 497.148 59.5899 496.86 59.7545ZM501.171 60.2175C500.944 60.1764 500.708 60.0632 500.461 59.878C500.234 59.6722 500.028 59.4458 499.843 59.1989C499.679 58.9314 499.565 58.6947 499.504 58.489C499.504 58.4478 499.473 58.3964 499.411 58.3346C499.37 58.2729 499.349 58.242 499.349 58.242C499.267 58.1803 499.216 57.9128 499.195 57.4395C499.195 56.9456 499.226 56.4003 499.288 55.8035C499.349 55.2068 499.421 54.7335 499.504 54.3836C499.607 54.0544 499.761 53.612 499.967 53.0564C500.173 52.4802 500.347 51.9657 500.491 51.513L501.325 49.7227L500.09 49.3832C499.946 49.342 499.823 49.2597 499.72 49.1362C499.637 49.0128 499.596 48.9099 499.596 48.8276C499.596 48.6629 499.689 48.4674 499.874 48.2411C500.059 47.9941 500.193 47.8707 500.275 47.8707C500.378 47.8913 500.563 47.9015 500.831 47.9015C501.119 47.9015 501.397 47.8913 501.664 47.8707C501.932 47.8501 502.097 47.8295 502.158 47.8089C502.241 47.7678 502.323 47.7163 502.405 47.6546C502.488 47.5723 502.549 47.4591 502.59 47.3151C502.693 47.0887 502.786 46.8829 502.868 46.6977C502.951 46.4919 503.064 46.2656 503.208 46.0187C503.352 45.7511 503.465 45.5248 503.547 45.3396C503.65 45.1544 503.805 44.8971 504.01 44.5679C504.113 44.4239 504.226 44.2489 504.35 44.0432C504.473 43.8374 504.628 43.6625 504.813 43.5184C504.998 43.3538 505.183 43.2818 505.368 43.3023C505.574 43.3023 505.831 43.4361 506.14 43.7036C506.305 43.9094 506.397 44.0637 506.418 44.1666C506.439 44.2695 506.356 44.465 506.171 44.7531C506.006 45.1029 505.811 45.4528 505.585 45.8026C505.379 46.1524 505.183 46.5022 504.998 46.8521C504.669 47.3048 504.607 47.562 504.813 47.6237C505.019 47.6855 505.595 47.6443 506.541 47.5003C507.138 47.3974 507.57 47.4283 507.838 47.5929C508.105 47.7369 508.26 47.9839 508.301 48.3337C508.363 48.8276 508.311 49.1259 508.147 49.2288C507.982 49.3317 507.509 49.3832 506.727 49.3832C506.233 49.4655 505.811 49.5169 505.461 49.5375C505.111 49.5375 504.854 49.5375 504.689 49.5375C504.422 49.5581 504.247 49.5684 504.165 49.5684C504.082 49.5684 503.959 49.5889 503.794 49.6301C503.63 49.6713 503.506 49.7433 503.424 49.8462C503.362 49.9285 503.29 50.052 503.208 50.2166C503.125 50.2989 503.002 50.515 502.837 50.8648C502.673 51.2146 502.467 51.5953 502.22 52.0069C501.932 52.8712 501.685 53.7354 501.479 54.5997C501.273 55.4434 501.109 56.2665 500.985 57.0691C500.903 57.5835 500.913 57.9436 501.016 58.1494C501.119 58.3346 501.387 58.4478 501.819 58.489C502.045 58.5095 502.405 58.5095 502.899 58.489C503.414 58.4478 503.815 58.3861 504.103 58.3038C504.329 58.2009 504.566 58.098 504.813 57.9951C505.06 57.8716 505.286 57.7482 505.492 57.6247C505.677 57.5218 505.862 57.4189 506.048 57.316C506.233 57.1925 506.325 57.1308 506.325 57.1308C506.428 56.9662 506.541 56.9147 506.665 56.9765C506.788 57.0382 506.891 57.1925 506.974 57.4395C506.974 57.6864 506.922 57.9436 506.819 58.2112C506.716 58.4787 506.336 58.7976 505.677 59.168C504.751 59.7442 503.897 60.0941 503.115 60.2175C502.354 60.3204 501.706 60.3204 501.171 60.2175ZM517.117 60.0632C516.911 60.0632 516.695 59.95 516.468 59.7237C516.263 59.4973 516.077 59.2195 515.913 58.8902C515.769 58.5404 515.697 58.2112 515.697 57.9025C515.697 57.5938 515.769 57.0176 515.913 56.1739C516.077 55.3302 516.273 54.4762 516.499 53.612C516.664 53.0769 516.715 52.7683 516.654 52.6859C516.592 52.6036 516.314 52.7168 515.82 53.0255C515.532 53.1695 515.275 53.3239 515.048 53.4885C514.822 53.6325 514.627 53.7972 514.462 53.9824C514.359 54.0647 514.205 54.1984 513.999 54.3836C513.793 54.5688 513.577 54.7438 513.351 54.9084C513.083 55.1142 512.744 55.4023 512.332 55.7727C511.921 56.1431 511.509 56.5135 511.097 56.8839C510.706 57.2543 510.408 57.5424 510.202 57.7482C510.161 57.8305 510.099 57.9025 510.017 57.9642C509.935 58.026 509.842 58.0671 509.739 58.0877C509.636 58.0877 509.523 58.0671 509.4 58.026C509.173 57.9642 508.957 57.8305 508.752 57.6247C508.566 57.4189 508.474 57.1823 508.474 56.9147C508.474 56.709 508.556 56.3591 508.721 55.8653C508.885 55.3508 509.101 54.7335 509.369 54.0132C509.657 53.293 509.986 52.5316 510.357 51.7291C510.418 51.6262 510.47 51.5027 510.511 51.3587C510.552 51.194 510.583 51.0191 510.604 50.8339C510.645 50.6487 510.665 50.4738 510.665 50.3092C510.665 50.2063 510.676 50.1034 510.696 50.0005C510.737 49.877 510.778 49.7639 510.82 49.661C510.881 49.5375 510.933 49.4552 510.974 49.414C511.056 49.2494 511.2 49.2083 511.406 49.2906C511.612 49.3523 511.787 49.4963 511.931 49.7227C512.24 50.0108 512.394 50.3709 512.394 50.8031C512.414 51.2352 512.312 51.7702 512.085 52.4081C512.003 52.5522 511.931 52.6962 511.869 52.8403C511.828 52.9638 511.787 53.0769 511.746 53.1798C511.704 53.2621 511.674 53.3342 511.653 53.3959C511.632 53.437 511.622 53.4576 511.622 53.4576C511.704 53.4576 511.89 53.365 512.178 53.1798C512.466 52.9946 512.805 52.7888 513.196 52.5625C513.505 52.3361 513.773 52.1303 513.999 51.9451C514.246 51.7394 514.452 51.585 514.616 51.4821C514.781 51.3587 514.884 51.2969 514.925 51.2969C515.007 51.2969 515.11 51.2661 515.234 51.2043C515.357 51.1426 515.46 51.0706 515.542 50.9883C515.625 50.9059 515.686 50.8648 515.727 50.8648C515.789 50.8442 515.82 50.8339 515.82 50.8339C515.82 50.8339 515.861 50.8339 515.944 50.8339C516.026 50.8133 516.108 50.7619 516.191 50.6796C516.355 50.5561 516.571 50.5253 516.839 50.587C517.106 50.6281 517.353 50.731 517.58 50.8957C517.806 51.0603 517.919 51.2455 517.919 51.4513C517.919 51.5336 517.94 51.6056 517.981 51.6673C518.043 51.7085 518.073 51.7291 518.073 51.7291C518.238 51.7291 518.341 51.9863 518.382 52.5007C518.444 53.0152 518.392 53.5091 518.228 53.9824C518.228 54.291 518.166 54.6614 518.043 55.0936C517.94 55.5257 517.847 55.9373 517.765 56.3283C517.6 56.8427 517.487 57.2954 517.425 57.6864C517.363 58.0774 517.353 58.4067 517.394 58.6742C517.435 58.9417 517.507 59.1578 517.61 59.3224C517.693 59.4664 517.693 59.631 517.61 59.8163C517.528 59.9809 517.363 60.0632 517.117 60.0632ZM523.004 60.5262C522.099 60.5262 521.358 60.1867 520.782 59.5076C520.205 58.8079 519.928 57.9436 519.948 56.9147C519.989 56.1739 520.133 55.3817 520.38 54.538C520.648 53.6737 520.998 52.8506 521.43 52.0686C521.862 51.2661 522.335 50.5664 522.85 49.9696C523.364 49.3729 523.899 48.951 524.455 48.7041C524.661 48.6012 524.877 48.5189 525.103 48.4572C525.35 48.3954 525.597 48.3646 525.844 48.3646C526.07 48.3646 526.307 48.4057 526.554 48.488C526.801 48.5498 527.007 48.6218 527.171 48.7041C527.521 48.8481 527.789 49.0231 527.974 49.2288C528.159 49.4346 528.324 49.7536 528.468 50.1857C528.529 50.5767 528.56 50.8545 528.56 51.0191C528.56 51.1837 528.509 51.4307 528.406 51.7599C528.159 52.5007 527.84 53.1387 527.449 53.6737C527.058 54.2087 526.533 54.6614 525.875 55.0318C525.71 55.1347 525.515 55.2171 525.288 55.2788C525.083 55.3199 524.866 55.3405 524.64 55.3405C524.229 55.3405 523.827 55.2685 523.436 55.1245C523.066 54.9598 522.767 54.7232 522.541 54.4145L522.325 54.1676L522.232 54.4145C522.027 54.9701 521.862 55.4846 521.739 55.9579C521.636 56.4312 521.584 56.8633 521.584 57.2543C521.584 57.5012 521.605 57.7379 521.646 57.9642C521.708 58.1906 521.79 58.3861 521.893 58.5507C521.975 58.6742 522.109 58.7668 522.294 58.8285C522.5 58.8697 522.716 58.8902 522.942 58.8902C523.086 58.8902 523.23 58.8902 523.375 58.8902C523.539 58.8697 523.693 58.8285 523.838 58.7668C524.187 58.6433 524.465 58.5095 524.671 58.3655C524.897 58.2215 525.124 58.0671 525.35 57.9025L525.473 57.8408H525.443C525.69 57.7173 525.906 57.5938 526.091 57.4704C526.297 57.3469 526.399 57.2851 526.399 57.2851C526.482 57.2851 526.564 57.2337 526.646 57.1308C526.811 57.0485 527.017 57.0794 527.264 57.2234C527.531 57.3675 527.665 57.5527 527.665 57.779C527.644 57.8819 527.552 58.0465 527.387 58.2729C527.223 58.4787 527.037 58.6742 526.832 58.8594C526.646 59.0446 526.492 59.1475 526.369 59.168C526.348 59.1886 526.276 59.2298 526.153 59.2915C526.029 59.3327 525.947 59.3738 525.906 59.415H525.936C525.751 59.6619 525.566 59.7854 525.381 59.7854H525.134C525.052 59.9294 524.784 60.0941 524.331 60.2793C523.879 60.4439 523.436 60.5262 523.004 60.5262ZM524.393 53.7354C524.764 53.7354 525.083 53.6325 525.35 53.4268C525.638 53.2004 525.885 52.9535 526.091 52.6859C526.502 52.1303 526.739 51.5953 526.801 51.0809C526.883 50.5458 526.821 50.1754 526.616 49.9696C526.492 49.9079 526.379 49.877 526.276 49.877C526.194 49.8565 526.019 49.8873 525.751 49.9696C525.566 50.0108 525.309 50.1651 524.98 50.4326C524.65 50.7002 524.321 50.9985 523.992 51.3278C523.683 51.657 523.447 51.9348 523.282 52.1612L522.881 52.8094C523.045 52.7477 523.2 52.7168 523.344 52.7168C523.508 52.6962 523.601 52.7065 523.621 52.7477C523.621 52.9329 523.652 53.1078 523.714 53.2724C523.796 53.4165 523.889 53.5296 523.992 53.612C524.115 53.6943 524.249 53.7354 524.393 53.7354ZM531.515 60.0015C530.487 60.0015 529.735 59.631 529.262 58.8902C529.118 58.6845 529.046 58.4787 529.046 58.2729C529.067 58.0465 529.128 57.8922 529.231 57.8099C529.355 57.7276 529.499 57.7996 529.663 58.026C529.952 58.1906 530.363 58.2729 530.898 58.2729C531.166 58.2729 531.443 58.2523 531.732 58.2112C532.02 58.1494 532.308 58.0671 532.596 57.9642C532.904 57.8202 533.11 57.6967 533.213 57.5938C533.316 57.4704 533.295 57.3675 533.151 57.2851H533.182C532.647 57.1411 532.102 56.9147 531.546 56.6061C531.011 56.2768 530.548 55.927 530.157 55.5566C529.766 55.1656 529.54 54.8158 529.478 54.5071C529.314 53.8692 529.355 53.221 529.602 52.5625C529.849 51.8834 530.198 51.2866 530.651 50.7722C530.816 50.6693 531.022 50.5458 531.269 50.4018C531.515 50.2372 531.711 50.1446 531.855 50.124V50.1548C532.246 49.7433 532.719 49.414 533.275 49.1671C533.851 48.9202 534.458 48.6938 535.096 48.488L535.559 48.4263C535.806 48.3851 536.012 48.3646 536.176 48.3646C536.156 48.3646 536.197 48.3851 536.3 48.4263C536.403 48.4469 536.495 48.4674 536.578 48.488C536.701 48.5498 536.804 48.5806 536.886 48.5806C537.154 48.6218 537.401 48.7452 537.627 48.951C537.853 49.1568 538.028 49.4037 538.152 49.6918C538.296 49.9594 538.347 50.2166 538.306 50.4635C538.265 50.8545 538.142 51.2043 537.936 51.513C537.751 51.8217 537.524 51.9966 537.257 52.0377C537.298 52.0172 537.267 51.9863 537.164 51.9451C537.082 51.8834 536.989 51.8217 536.886 51.7599L536.794 51.8217C536.794 51.8217 536.783 51.8011 536.763 51.7599C536.763 51.6982 536.742 51.6262 536.701 51.5439C536.639 51.4204 536.609 51.2866 536.609 51.1426C536.609 50.978 536.619 50.8031 536.639 50.6179C536.681 50.3915 536.681 50.2577 536.639 50.2166C536.619 50.1754 536.485 50.1446 536.238 50.124C535.95 50.0622 535.528 50.1137 534.973 50.2783C534.438 50.4429 533.985 50.6693 533.614 50.9574C533.162 51.2455 532.781 51.5233 532.472 51.7908C532.164 52.0377 531.917 52.2847 531.732 52.5316C531.546 52.758 531.382 53.0255 531.238 53.3342C531.135 53.4782 531.042 53.6223 530.96 53.7663C530.898 53.8898 530.867 54.0029 530.867 54.1058C530.867 54.3322 531.032 54.5688 531.361 54.8158C531.711 55.0421 532.225 55.3097 532.904 55.6183C533.439 55.8447 533.892 56.0916 534.263 56.3591C534.633 56.6266 534.89 56.9353 535.034 57.2851C535.075 57.3675 535.086 57.4704 535.065 57.5938C535.065 57.6967 535.045 57.7687 535.003 57.8099C535.045 57.851 535.065 57.8819 535.065 57.9025V57.8716C535.23 58.1186 535.23 58.3758 535.065 58.6433C534.921 58.9108 534.664 59.1475 534.293 59.3532C533.944 59.5384 533.512 59.6825 532.997 59.7854H533.028C532.76 59.8677 532.493 59.9294 532.225 59.9706C531.978 59.9912 531.742 60.0015 531.515 60.0015ZM539.676 60.5571C539.285 60.3924 538.914 60.1764 538.564 59.9089C538.215 59.6208 537.988 59.3841 537.885 59.1989C537.885 59.0137 537.916 58.8902 537.978 58.8285C538.04 58.7462 538.215 58.7153 538.503 58.7359C538.811 58.7359 539.305 58.7771 539.984 58.8594C540.231 58.8594 540.54 58.8388 540.91 58.7976C541.281 58.7565 541.62 58.6947 541.929 58.6124C542.258 58.5301 542.443 58.4272 542.485 58.3038C542.587 58.3038 542.608 58.2729 542.546 58.2112C542.485 58.1288 542.413 58.0465 542.33 57.9642C542.248 57.9642 542.155 57.9334 542.052 57.8716C541.95 57.7893 541.857 57.7482 541.775 57.7482C541.775 57.6453 541.672 57.5321 541.466 57.4086C541.281 57.2646 541.085 57.1514 540.879 57.0691C540.427 56.6987 540.036 56.3694 539.707 56.0813C539.377 55.7727 539.254 55.5669 539.336 55.464C539.336 55.3817 539.336 55.3405 539.336 55.3405C539.336 55.3199 539.336 55.3097 539.336 55.3097C539.192 55.3097 539.027 55.1039 538.842 54.6923C538.678 54.2807 538.595 53.9103 538.595 53.5811C538.595 53.3342 538.667 53.0255 538.811 52.6551C538.955 52.2641 539.151 51.8628 539.398 51.4513C539.645 51.0397 539.902 50.7002 540.17 50.4326C540.54 50.0828 541.003 49.7124 541.559 49.3214C542.114 48.9099 542.659 48.5498 543.195 48.2411C543.75 47.9118 544.213 47.6958 544.584 47.5929C544.954 47.4488 545.293 47.3768 545.602 47.3768C545.931 47.3768 546.219 47.4488 546.466 47.5929C546.672 47.6958 546.857 47.8501 547.022 48.0559C547.207 48.2411 547.362 48.4366 547.485 48.6424C547.629 48.8276 547.722 48.9922 547.763 49.1362C547.763 49.3832 547.742 49.661 547.701 49.9696C547.66 50.2577 547.598 50.515 547.516 50.7413C547.454 50.9677 547.351 51.0809 547.207 51.0809C547.207 51.0809 547.176 51.0911 547.115 51.1117C547.073 51.1117 547.053 51.1632 547.053 51.2661C547.053 51.4718 546.899 51.7085 546.59 51.976C546.199 52.2435 545.859 52.4081 545.571 52.4699C545.283 52.511 545.108 52.3979 545.047 52.1303C544.985 52.048 544.944 51.976 544.923 51.9143C544.902 51.8525 544.851 51.8217 544.769 51.8217C544.769 51.8217 544.738 51.7908 544.676 51.7291C544.614 51.6673 544.584 51.5644 544.584 51.4204C544.584 51.3381 544.614 51.2661 544.676 51.2043C544.738 51.122 544.769 51.0809 544.769 51.0809C544.872 51.0809 545.005 50.9677 545.17 50.7413C545.335 50.4944 545.479 50.2372 545.602 49.9696C545.746 49.6815 545.818 49.4861 545.818 49.3832C545.818 49.2597 545.798 49.1877 545.756 49.1671C545.736 49.1465 545.643 49.1362 545.479 49.1362C545.191 49.2597 544.841 49.4243 544.429 49.6301C544.018 49.8359 543.627 50.0417 543.256 50.2474C542.906 50.4326 542.649 50.6076 542.485 50.7722C542.402 50.9162 542.351 51.0088 542.33 51.05C542.31 51.0706 542.258 51.0809 542.176 51.0809C542.176 50.9985 542.104 51.0397 541.96 51.2043C541.836 51.3484 541.672 51.5542 541.466 51.8217C541.281 52.0892 541.096 52.3567 540.91 52.6242C540.746 52.8712 540.622 53.0564 540.54 53.1798C540.499 53.221 540.447 53.3444 540.386 53.5502C540.344 53.7354 540.324 53.9103 540.324 54.075C540.242 54.3219 540.252 54.4968 540.355 54.5997C540.458 54.682 540.684 54.8672 541.034 55.1553C541.754 55.6903 542.32 56.1328 542.732 56.4826C543.143 56.8324 543.452 57.1205 543.658 57.3469C543.863 57.5732 543.987 57.779 544.028 57.9642C544.398 58.5816 544.512 59.0549 544.367 59.3841C544.223 59.7134 543.874 60.0015 543.318 60.2484C543.112 60.3513 542.773 60.4336 542.299 60.4953C541.826 60.5571 541.342 60.5879 540.849 60.5879C540.355 60.6085 539.964 60.5982 539.676 60.5571Z" fill="white"/>
<defs>
<filter id="filter0_d_695_8427" x="131.797" y="94.7059" width="46.3006" height="53.3159" filterUnits="userSpaceOnUse" color-interpolation-filters="sRGB">
<feFlood flood-opacity="0" result="BackgroundImageFix"/>
<feColorMatrix in="SourceAlpha" type="matrix" values="0 0 0 0 0 0 0 0 0 0 0 0 0 0 0 0 0 0 127 0" result="hardAlpha"/>
<feOffset dy="5.6122"/>
<feGaussianBlur stdDeviation="2.8061"/>
<feComposite in2="hardAlpha" operator="out"/>
<feColorMatrix type="matrix" values="0 0 0 0 0 0 0 0 0 0 0 0 0 0 0 0 0 0 0.25 0"/>
<feBlend mode="normal" in2="BackgroundImageFix" result="effect1_dropShadow_695_8427"/>
<feBlend mode="normal" in="SourceGraphic" in2="effect1_dropShadow_695_8427" result="shape"/>
</filter>
<clipPath id="clip0_695_8427">
<rect x="123.882" y="78.1938" width="531.785" height="75.1156" rx="8.4183" fill="white"/>
</clipPath>
</defs>
</svg>
